<?xml version="1.0" encoding="utf-8"?>
<!-- Generator: Adobe Illustrator 24.0.1, SVG Export Plug-In . SVG Version: 6.00 Build 0)  -->
<svg version="1.1" id="Layer_1" xmlns="http://www.w3.org/2000/svg" xmlns:xlink="http://www.w3.org/1999/xlink"
	 viewBox="213 420 490 360" style="enable-background:new 0 0 2000 1200;" xml:space="preserve">
<style type="text/css">
	.st0{fill:#1E1E1E;}
	.st1{fill:#FFFFFF;}
</style>

<g>
	<g>
		<g>
			<g>
				<path class="st1" d="M1145.56,638.06c-0.6-0.48-0.98-1.17-1.12-2.05h-0.02l-3.64-28.25h-0.4l-12.79,23.73l-13.17-23.73h-0.44
					l-3.52,28.25h-0.01c-0.12,0.88-0.48,1.56-1.1,2.05c-0.62,0.49-1.32,0.73-2.12,0.73c-0.44,0-0.67,0-0.7,0v0.44h3.53h1.37h1.41
					h0.04h2.64v-0.4h-0.66c-0.47,0-0.88-0.2-1.21-0.59c-0.34-0.4-0.51-0.83-0.51-1.3c0-0.06,0-0.1,0-0.13c0-0.03,0-0.06,0-0.09h0
					l1.81-17.45l11.29,20.75h0.44c0.03-0.68,0.18-1.38,0.44-2.12c0.26-0.73,0.66-1.62,1.19-2.64l8.61-16.15l1.8,17.6h-0.01
					c0,0.03,0,0.06,0,0.09c0,0.03,0,0.07,0,0.13c0,0.47-0.16,0.9-0.48,1.3c-0.32,0.4-0.74,0.59-1.23,0.59h-0.66v0.4h2.64h0.04h4.45
					h1.37h3.53v-0.44c-0.03,0-0.26,0-0.7,0C1146.86,638.78,1146.16,638.54,1145.56,638.06z"/>
			</g>
			<g>
				<path class="st1" d="M1229.01,608.38h-2.56h-0.13h-3.04v0.44h0.7c0.65,0,1.2,0.21,1.65,0.62c0.46,0.41,0.68,0.94,0.68,1.59
					v17.32c0,2-0.37,3.72-1.12,5.18c-0.75,1.45-1.8,2.59-3.15,3.39c-1.35,0.81-2.97,1.21-4.85,1.21c-1.76,0-3.31-0.43-4.63-1.28
					c-1.32-0.85-2.34-2.06-3.06-3.61c-0.72-1.56-1.08-3.38-1.08-5.47v-16.75c0-0.65,0.23-1.18,0.68-1.59
					c0.46-0.41,1.01-0.62,1.65-0.62h0.7v-0.44h-3.04h-0.09h-5.16h-0.13h-3.04v0.44h0.7c0.65,0,1.2,0.21,1.65,0.62
					c0.46,0.41,0.68,0.94,0.68,1.59v17.19c0,2.35,0.53,4.4,1.59,6.15c1.06,1.75,2.61,3.1,4.65,4.05c2.04,0.95,4.5,1.43,7.38,1.43
					c2.56,0,4.77-0.49,6.63-1.45c1.87-0.97,3.3-2.33,4.3-4.08c1-1.75,1.5-3.8,1.5-6.15v-17.14c0-0.65,0.23-1.18,0.68-1.59
					c0.46-0.41,1.01-0.62,1.65-0.62h0.71v-0.44h-3.04H1229.01z"/>
			</g>
			<g>
				<path class="st1" d="M1302.87,624.33l-8.51-6.3c-0.82-0.59-1.47-1.23-1.96-1.92c-0.49-0.69-0.7-1.4-0.64-2.14
					c0.03-1.26,0.55-2.34,1.56-3.22c1.01-0.88,2.37-1.32,4.08-1.32c1.7,0,3.09,0.44,4.17,1.32c1.07,0.88,1.61,2.07,1.61,3.57h0.44
					l0.33-5.2h0.03l0.04-0.93h-2.62c-0.26-0.04-0.51-0.07-0.79-0.11c-0.78-0.1-1.55-0.18-2.31-0.24c-0.77-0.06-1.43-0.09-1.98-0.09
					c-1.79,0-3.33,0.34-4.61,1.01c-1.28,0.68-2.27,1.59-2.97,2.75c-0.71,1.16-1.1,2.45-1.19,3.86c-0.09,1.35,0.15,2.65,0.73,3.9
					c0.57,1.25,1.54,2.31,2.89,3.19l7.98,6.04c1,0.59,1.73,1.24,2.2,1.96c0.47,0.72,0.71,1.52,0.71,2.4c0,1.53-0.55,2.78-1.65,3.75
					c-1.1,0.97-2.56,1.48-4.39,1.54c-1.62,0.03-3.02-0.3-4.21-0.99c-1.19-0.69-2.09-1.65-2.71-2.86c-0.62-1.22-0.87-2.58-0.75-4.08
					h-0.4c-0.29,0.62-0.54,1.37-0.75,2.27c-0.21,0.9-0.32,1.76-0.35,2.6c-0.03,0.84,0.04,1.55,0.22,2.14
					c0.56,0.56,1.31,1.04,2.25,1.43c0.94,0.4,1.98,0.69,3.11,0.88c1.13,0.19,2.24,0.29,3.33,0.29c3.2,0,5.74-0.79,7.6-2.38
					c1.87-1.59,2.84-3.73,2.93-6.43c0.06-1.41-0.19-2.68-0.75-3.81C1304.96,626.08,1304.08,625.12,1302.87,624.33z"/>
			</g>
			<g>
				<path class="st1" d="M1369.73,608.38h-5.11h-0.13h-3.39v0.44h0.57c0.76,0,1.42,0.27,1.96,0.82c0.54,0.54,0.83,1.2,0.86,1.96
					v24.42c-0.03,0.76-0.32,1.42-0.86,1.96c-0.54,0.54-1.2,0.82-1.96,0.82h-0.57v0.44h3.39h0.13h5.11h0.13h3.39v-0.44
					c-0.03,0-0.22,0-0.57,0c-0.77,0-1.42-0.27-1.96-0.82c-0.54-0.54-0.83-1.2-0.86-1.96v-24.42c0.03-0.76,0.32-1.42,0.86-1.96
					c0.54-0.54,1.2-0.82,1.96-0.82c0.35,0,0.54,0,0.57,0v-0.44h-3.39H1369.73z"/>
			</g>
			<g>
				<path class="st1" d="M1456.73,626.36h-0.35c-0.41,2.91-1.14,5.23-2.18,6.96c-1.04,1.73-2.38,2.97-4.01,3.72
					c-1.63,0.75-3.55,1.12-5.75,1.12c-2.26-0.06-4.24-0.68-5.93-1.87c-1.69-1.19-3-2.86-3.92-5.02c-0.93-2.16-1.39-4.69-1.39-7.6
					c0-2.91,0.48-5.43,1.43-7.56c0.95-2.13,2.31-3.77,4.05-4.94c1.75-1.16,3.83-1.74,6.24-1.74c2.5,0,4.68,0.64,6.55,1.92
					c1.87,1.28,3.17,3.31,3.9,6.1h0.4l-0.35-7.1c-1.26-0.71-2.81-1.31-4.63-1.83c-1.82-0.51-3.88-0.77-6.17-0.77
					c-3.56,0-6.63,0.65-9.21,1.96c-2.59,1.31-4.58,3.16-5.99,5.55c-1.41,2.39-2.12,5.22-2.12,8.48c0,3.32,0.71,6.18,2.14,8.57
					c1.42,2.39,3.43,4.24,6.01,5.53c2.59,1.29,5.58,1.95,8.99,1.98c2.15,0,4.02-0.27,5.62-0.82c1.6-0.54,2.96-1.28,4.08-2.2
					c1.12-0.93,2.01-1.96,2.69-3.11L1456.73,626.36z"/>
			</g>
		</g>
		<g>
			<g>
				<path class="st1" d="M868.18,553.01c-1.77-1.04-3.23-2.78-4.41-5.18l-32.49-73.22h-1.02c-0.08,0.75-0.34,1.83-0.79,3.22
					c-0.45,1.4-1,2.85-1.64,4.35c-0.64,1.51-1.21,2.85-1.7,4.01c-0.49,1.17-0.81,1.9-0.96,2.2l-25.98,59.71
					c-1.16,2.24-2.57,3.89-4.26,4.9c-1.85,1.09-3.64,1.64-5.37,1.64h-1.02v1.13h23.74v-1.13h-1.02c-0.9,0-1.81-0.28-2.71-0.85
					c-0.9-0.56-1.55-1.37-1.92-2.43c-0.38-1.05-0.26-2.33,0.34-3.84h-0.05l6.41-15.71h27.86l6.16,15.81
					c0.79,2.21,0.64,3.94-0.48,5.16c-1.13,1.24-2.41,1.86-3.84,1.86h-1.02v1.13h32.44v-1.13h-0.9
					C871.82,554.64,870.03,554.1,868.18,553.01z M815.09,527.52l12.5-30.63l11.93,30.63H815.09z"/>
			</g>
			<g>
				<path class="st1" d="M913.68,489.08h0.79c1.36,0,2.54,0.57,3.56,1.7c1.02,1.13,1.11,2.79,0.28,4.97h0.04l-17.69,40.81
					l-17.39-41.21c-0.59-1.98-0.43-3.52,0.56-4.57c1.05-1.13,2.18-1.7,3.39-1.7h0.9v-1.13h-29.84v1.13h0.9
					c1.51,0,3.07,0.51,4.69,1.53c1.57,0.99,2.91,2.64,4.02,4.94l29.27,61.69h0.9c0.15-0.83,0.45-1.9,0.9-3.22
					c0.45-1.32,0.98-2.67,1.58-4.07c0.6-1.39,1.15-2.64,1.64-3.73c0.49-1.09,0.81-1.75,0.96-1.98L926,495.75H926
					c1.13-2.41,2.52-4.13,4.18-5.14c1.66-1.02,3.24-1.53,4.75-1.53h0.9v-1.13h-22.16V489.08z"/>
			</g>
			<g>
				<path class="st1" d="M962.34,490.78c1.32-1.13,2.96-1.7,4.92-1.7h1.24l0.11-1.13h-8.36h-0.34h-12.55h-0.34h-8.37v1.13
					c0.9,0,1.39,0,1.47,0c1.88,0,3.5,0.57,4.86,1.7c1.36,1.13,2.04,2.56,2.04,4.3v53.58c0,1.66-0.68,3.07-2.04,4.24
					c-1.36,1.17-2.98,1.75-4.86,1.75h-1.47v1.13h8.37h0.34h12.55h0.34h8.36v-1.13c-0.08,0-0.53,0-1.36,0c-1.96,0-3.6-0.58-4.92-1.75
					c-1.32-1.17-2.02-2.58-2.09-4.24v-53.58C960.33,493.34,961.02,491.91,962.34,490.78z"/>
			</g>
			<g>
				<path class="st1" d="M1020.39,517.57l-21.82-16.16c-2.11-1.51-3.79-3.15-5.03-4.92c-1.24-1.77-1.79-3.6-1.64-5.48
					c0.07-3.24,1.41-5.99,4.01-8.25c2.6-2.26,6.08-3.39,10.46-3.39c4.37,0,7.93,1.13,10.68,3.39c2.75,2.26,4.13,5.31,4.13,9.16h1.13
					l0.84-13.34h0.06l0.11-2.37h-6.73c-0.66-0.09-1.31-0.19-2.03-0.28c-2-0.26-3.98-0.47-5.93-0.62c-1.96-0.15-3.66-0.23-5.09-0.23
					c-4.6,0-8.53,0.87-11.81,2.6c-3.28,1.73-5.82,4.09-7.63,7.06c-1.81,2.98-2.83,6.27-3.05,9.89c-0.23,3.47,0.4,6.8,1.86,10
					c1.47,3.2,3.94,5.93,7.4,8.2l20.46,15.49c2.56,1.51,4.45,3.18,5.65,5.03c1.2,1.85,1.81,3.9,1.81,6.16
					c0,3.92-1.41,7.12-4.24,9.61c-2.83,2.49-6.58,3.81-11.25,3.96c-4.15,0.08-7.74-0.77-10.8-2.54c-3.05-1.77-5.37-4.22-6.95-7.35
					c-1.58-3.13-2.22-6.61-1.92-10.46h-1.02c-0.75,1.58-1.4,3.52-1.92,5.82c-0.53,2.3-0.83,4.52-0.9,6.67
					c-0.08,2.15,0.11,3.98,0.57,5.48c1.43,1.43,3.35,2.66,5.76,3.67c2.41,1.02,5.07,1.77,7.97,2.26c2.9,0.49,5.75,0.73,8.53,0.73
					c8.21,0,14.71-2.04,19.5-6.1c4.78-4.07,7.29-9.57,7.52-16.5c0.15-3.62-0.49-6.88-1.92-9.78
					C1025.74,522.07,1023.48,519.6,1020.39,517.57z"/>
			</g>
			<g>
				<path class="st1" d="M1106.75,487.95h-12.66h-0.34h-7.57v1.13h1.24c1.81,0,3.3,0.57,4.47,1.7c1.17,1.13,1.79,2.56,1.86,4.3
					v24.98h-33.68v-24.98c0-1.73,0.62-3.17,1.86-4.3c1.24-1.13,2.73-1.7,4.47-1.7h1.24v-1.13h-7.57h-0.34h-12.66h-0.34h-7.57v1.13
					c0.83,0,1.28,0,1.36,0c1.73,0,3.2,0.57,4.41,1.7c1.2,1.13,1.81,2.56,1.81,4.3v53.58c0,1.66-0.6,3.07-1.81,4.24
					c-1.21,1.17-2.68,1.75-4.41,1.75c-0.07,0-0.53,0-1.36,0v1.13h7.57h0.34h12.66h0.34h7.57v-1.13h-1.24
					c-1.73,0-3.22-0.58-4.47-1.75c-1.24-1.17-1.86-2.58-1.86-4.24v-24.53h33.68v24.53c-0.08,1.66-0.7,3.07-1.86,4.24
					c-1.17,1.17-2.66,1.75-4.47,1.75h-1.24v1.13h7.57h0.34h12.55h0.34h7.69v-1.13h-1.36c-1.73,0-3.2-0.58-4.41-1.75
					c-1.21-1.17-1.85-2.58-1.92-4.24v-53.58h0.11c0-1.73,0.6-3.17,1.81-4.3c1.2-1.13,2.68-1.7,4.41-1.7h1.36v-1.13h-7.69H1106.75z"
					/>
			</g>
			<g>
				<path class="st1" d="M1189.38,553.12c-1.66-1.02-3.02-2.69-4.07-5.03h0l-29.38-62.74h-1.02c-0.08,0.75-0.36,1.79-0.85,3.11
					c-0.49,1.32-1.04,2.7-1.64,4.13c-0.6,1.43-1.15,2.68-1.64,3.73c-0.49,1.06-0.77,1.73-0.85,2.03l-23.14,49.74h-0.03
					c-1.06,2.34-2.41,4.01-4.07,5.03c-1.66,1.02-3.28,1.53-4.86,1.53h-0.9v1.13h22.27v-1.13h-0.9c-1.28,0-2.45-0.56-3.5-1.7
					c-1.06-1.13-1.17-2.75-0.34-4.86h-0.02l5.03-11.76H1165l4.93,11.76c0.83,2.11,0.72,3.73-0.34,4.86c-1.06,1.13-2.22,1.7-3.5,1.7
					h-0.9v1.13h29.84v-1.13h-0.9C1192.62,554.64,1191.03,554.14,1189.38,553.12z M1141.18,532.26l11.16-26.12l10.95,26.12H1141.18z"
					/>
			</g>
			<g>
				<path class="st1" d="M1220.97,490.78c1.32-1.13,2.96-1.7,4.92-1.7h1.24l0.11-1.13h-8.36h-0.34h-12.55h-0.34h-8.37v1.13
					c0.9,0,1.39,0,1.47,0c1.88,0,3.5,0.57,4.86,1.7c1.36,1.13,2.04,2.56,2.04,4.3v53.58c0,1.66-0.68,3.07-2.04,4.24
					c-1.36,1.17-2.98,1.75-4.86,1.75h-1.47v1.13h8.37h0.34h12.55h0.34h8.36v-1.13c-0.08,0-0.53,0-1.36,0c-1.96,0-3.6-0.58-4.92-1.75
					c-1.32-1.17-2.02-2.58-2.09-4.24v-53.58C1218.95,493.34,1219.65,491.91,1220.97,490.78z"/>
			</g>
			<g>
				<path class="st1" d="M1342.88,495.19c-3.47-5.95-8.38-10.53-14.75-13.73c-6.37-3.2-13.85-4.8-22.44-4.8h-17.63h-9.61h-3.84
					h-0.34h-8.7l0.11,1.13h1.36c1.96,0,3.65,0.7,5.09,2.09c1.43,1.4,2.15,3.07,2.15,5.03v62.62c-0.08,1.96-0.81,3.64-2.2,5.03
					c-1.4,1.4-3.07,2.09-5.03,2.09h-1.47v1.13h8.7h0.34h5.09h8.36h17.63c8.59,0,16.07-1.62,22.44-4.86
					c6.37-3.24,11.28-7.82,14.75-13.73c3.46-5.91,5.2-12.9,5.2-20.97C1348.08,508.15,1346.34,501.14,1342.88,495.19z
					 M1329.54,534.86c-2.34,5.28-5.6,9.36-9.78,12.26c-4.18,2.9-9.18,4.35-14.98,4.35c-2.49,0-4.73,0-6.73,0c-2,0-4.15,0-6.44,0
					c-1.21,0-2.39,0-3.56,0v-70.54c0.97,0,1.94,0,2.94,0c2.41,0,4.65,0,6.73,0c2.07,0,4.43,0,7.07,0c5.73,0,10.7,1.45,14.92,4.35
					c4.22,2.9,7.5,6.99,9.83,12.26c2.33,5.28,3.5,11.49,3.5,18.65C1333.05,523.37,1331.88,529.59,1329.54,534.86z"/>
			</g>
			<g>
				<path class="st1" d="M1418.73,553.12c-1.66-1.02-3.02-2.69-4.07-5.03h0l-29.38-62.74h-1.02c-0.08,0.75-0.36,1.79-0.85,3.11
					c-0.49,1.32-1.04,2.7-1.64,4.13c-0.6,1.43-1.15,2.68-1.64,3.73c-0.49,1.06-0.77,1.73-0.85,2.03l-23.15,49.74h-0.03
					c-1.06,2.34-2.41,4.01-4.07,5.03c-1.66,1.02-3.28,1.53-4.86,1.53h-0.9v1.13h22.27v-1.13h-0.9c-1.28,0-2.45-0.56-3.5-1.7
					c-1.06-1.13-1.17-2.75-0.34-4.86h-0.02l5.03-11.76h25.56l4.93,11.76c0.83,2.11,0.72,3.73-0.34,4.86c-1.06,1.13-2.22,1.7-3.5,1.7
					h-0.9v1.13h29.84v-1.13h-0.9C1421.97,554.64,1420.39,554.14,1418.73,553.12z M1370.53,532.26l11.16-26.12l10.95,26.12H1370.53z"
					/>
			</g>
			<g>
				<path class="st1" d="M1457.28,552.89c-1.21-1.17-1.85-2.58-1.92-4.24v-22.36l20.53-31.55l0.04,0c1.05-1.51,2.49-2.83,4.3-3.96
					c1.81-1.13,3.73-1.7,5.77-1.7h1.47v-1.13h-24.08v1.13h1.36c1.51,0,2.66,0.64,3.45,1.92c0.79,1.28,0.77,2.64-0.06,4.07l0.02,0
					l-15.77,26.56l-15.34-26.67l0.11,0c-0.75-1.36-0.77-2.67-0.06-3.96c0.72-1.28,1.87-1.92,3.45-1.92h1.24v-1.13h-31.54v1.13h1.36
					c2.11,0,4.03,0.51,5.76,1.53c1.73,1.02,3.17,2.36,4.3,4.01l0.02,0l20.22,31.55v22.49c0,1.66-0.62,3.07-1.87,4.24
					c-1.24,1.17-2.73,1.75-4.47,1.75c-0.83,0-1.28,0-1.36,0v1.13h7.69h0.34h12.77h0.34h7.69v-1.13h-1.36
					C1459.95,554.64,1458.48,554.06,1457.28,552.89z"/>
			</g>
			<g>
				<path class="st1" d="M1545.67,553.12c-1.66-1.02-3.02-2.69-4.07-5.03h0l-29.38-62.74h-1.02c-0.08,0.75-0.36,1.79-0.85,3.11
					c-0.49,1.32-1.04,2.7-1.64,4.13c-0.6,1.43-1.15,2.68-1.64,3.73c-0.49,1.06-0.77,1.73-0.85,2.03l-23.15,49.74h-0.03
					c-1.06,2.34-2.41,4.01-4.07,5.03c-1.66,1.02-3.28,1.53-4.86,1.53h-0.9v1.13h22.27v-1.13h-0.9c-1.28,0-2.45-0.56-3.5-1.7
					c-1.06-1.13-1.17-2.75-0.34-4.86h-0.02l5.03-11.76h25.56l4.93,11.76c0.83,2.11,0.72,3.73-0.34,4.86c-1.06,1.13-2.22,1.7-3.5,1.7
					h-0.9v1.13h29.84v-1.13h-0.9C1548.91,554.64,1547.33,554.14,1545.67,553.12z M1497.48,532.26l11.16-26.12l10.95,26.12H1497.48z"
					/>
			</g>
			<g>
				<path class="st1" d="M1625.7,487.95h-11.42h-0.23h-8.14v1.13h1.92c1.66,0,3.09,0.55,4.3,1.64c1.2,1.09,1.85,2.47,1.92,4.13
					v40.21l-54.15-48.69h-1.13c0.75,4.97,1.13,9.38,1.13,13.23v49.28c0,1.66-0.6,3.03-1.81,4.13c-1.21,1.09-2.68,1.64-4.41,1.64
					h-1.81v1.13h8.03h0.34h11.42h0.23h8.14v-1.13h-1.92c-1.58,0-3-0.55-4.24-1.64c-1.24-1.09-1.9-2.47-1.98-4.13v-40.52l54.26,48.89
					h1.02c-0.38-2.41-0.66-4.63-0.85-6.67c-0.19-2.03-0.28-4.33-0.28-6.9v-48.83c0-1.66,0.62-3.03,1.86-4.13
					c1.24-1.09,2.69-1.64,4.35-1.64h1.92v-1.13h-8.14H1625.7z"/>
			</g>
			<g>
				<path class="st1" d="M1665.32,490.78c1.32-1.13,2.96-1.7,4.92-1.7h1.24l0.11-1.13h-8.36h-0.34h-12.55h-0.34h-8.37v1.13
					c0.9,0,1.39,0,1.47,0c1.88,0,3.5,0.57,4.86,1.7c1.36,1.13,2.04,2.56,2.04,4.3v53.58c0,1.66-0.68,3.07-2.04,4.24
					c-1.36,1.17-2.98,1.75-4.86,1.75h-1.47v1.13h8.37h0.34h12.55h0.34h8.36v-1.13c-0.08,0-0.53,0-1.36,0c-1.96,0-3.6-0.58-4.92-1.75
					c-1.32-1.17-2.02-2.58-2.09-4.24v-53.58C1663.31,493.34,1664,491.91,1665.32,490.78z"/>
			</g>
			<g>
				<path class="st1" d="M1773.1,554.64c-1.81,0-3.43-0.55-4.86-1.64c-1.29-0.98-2.09-2.33-2.46-4.01l-9.18-62.51h-1.02L1726,537.16
					l-31.23-50.68h-0.9l-8.79,61.94h-0.03c-0.3,1.96-1.17,3.49-2.6,4.58c-1.43,1.09-3.09,1.64-4.97,1.64h-1.58v1.13h8.14h3.16h3.39
					h0.45h6.22v-1.02h-1.58c-1.58-0.07-2.68-0.64-3.28-1.7c-0.44-0.77-0.69-1.5-0.77-2.18l4.39-36.87l26.45,43.69h1.02
					c0.15-1.66,0.55-3.37,1.19-5.14c0.64-1.77,1.6-3.86,2.88-6.27l19.12-32.65l4.88,36.5h-0.04c0.15,0.9-0.04,1.88-0.57,2.94
					c-0.53,1.06-1.66,1.62-3.39,1.7h-1.58v1.02h6.33h0.34h10.74h3.39h8.03v-1.13H1773.1z"/>
			</g>
		</g>
		<g>
			<g>
				<path class="st1" d="M807.12,712.26l0.05,4.64c-0.43,0.72-0.99,1.37-1.7,1.96c-0.7,0.58-1.56,1.05-2.57,1.39
					c-1.01,0.34-2.19,0.51-3.54,0.51c-2.15-0.02-4.04-0.43-5.67-1.25c-1.63-0.81-2.9-1.98-3.79-3.49c-0.9-1.51-1.35-3.31-1.35-5.41
					c0-2.06,0.45-3.84,1.33-5.35c0.89-1.51,2.15-2.68,3.78-3.5c1.63-0.82,3.57-1.24,5.81-1.24c1.44,0,2.74,0.16,3.89,0.49
					c1.15,0.32,2.12,0.71,2.92,1.15l0.22,4.48h-0.25c-0.46-1.76-1.28-3.05-2.46-3.85c-1.18-0.81-2.55-1.21-4.13-1.21
					c-1.52,0-2.83,0.37-3.93,1.1c-1.1,0.73-1.96,1.77-2.56,3.12c-0.6,1.34-0.9,2.93-0.9,4.77c0,1.84,0.29,3.43,0.88,4.8
					c0.58,1.36,1.41,2.42,2.47,3.17s2.31,1.14,3.74,1.18c1.39,0,2.6-0.23,3.63-0.71c1.03-0.47,1.87-1.25,2.53-2.35
					c0.66-1.09,1.12-2.56,1.38-4.39H807.12z"/>
			</g>
			<g>
				<path class="st1" d="M823.61,700.53c2.13,0,4,0.41,5.6,1.24c1.6,0.83,2.84,2,3.71,3.52c0.87,1.52,1.31,3.31,1.31,5.37
					c0,2.06-0.44,3.85-1.31,5.37c-0.87,1.52-2.11,2.69-3.71,3.52s-3.47,1.24-5.6,1.24c-2.15,0-4.02-0.41-5.61-1.24
					c-1.6-0.83-2.83-2-3.7-3.52c-0.87-1.52-1.31-3.31-1.31-5.37c0-2.06,0.44-3.85,1.31-5.37c0.87-1.52,2.1-2.69,3.7-3.52
					C819.59,700.94,821.46,700.53,823.61,700.53z M823.61,719.71c1.39,0,2.6-0.37,3.63-1.11c1.03-0.74,1.83-1.79,2.39-3.14
					c0.57-1.35,0.85-2.96,0.85-4.81c0-1.85-0.28-3.46-0.85-4.81c-0.56-1.35-1.36-2.4-2.39-3.14c-1.03-0.74-2.24-1.11-3.63-1.11
					c-1.39,0-2.6,0.37-3.63,1.11c-1.03,0.74-1.83,1.79-2.39,3.14c-0.57,1.35-0.85,2.96-0.85,4.81c0,1.85,0.28,3.46,0.85,4.81
					c0.57,1.35,1.36,2.4,2.39,3.14C821.01,719.35,822.22,719.71,823.61,719.71z"/>
			</g>
			<g>
				<path class="st1" d="M841.01,718.35v2.03h-3.09v-0.28c0.02,0,0.17,0,0.44,0c0.5,0,0.95-0.15,1.33-0.46
					c0.39-0.31,0.62-0.74,0.7-1.29H841.01z M842.62,700.53h0.28l0.83,2.42l-1.81,17.43h-1.78L842.62,700.53z M842.1,718.8
					c0,0.02,0,0.04,0,0.05s0,0.05,0,0.08c0,0.3,0.1,0.57,0.32,0.82c0.21,0.25,0.47,0.38,0.77,0.38h0.42v0.25h-1.7v-1.58H842.1z
					 M842.9,700.53l8.73,15.74l-1.28,4.62l-8.12-14.93L842.9,700.53z M859.28,700.53l0.22,2.64l-7.84,14.71
					c-0.33,0.65-0.58,1.2-0.75,1.67c-0.17,0.46-0.26,0.91-0.28,1.33h-0.28l-0.86-2.2L859.28,700.53z M858.22,718.8h0.19v1.58h-1.7
					v-0.25h0.42c0.31,0,0.57-0.12,0.78-0.38c0.2-0.25,0.31-0.52,0.31-0.82c0-0.03,0-0.06,0-0.08S858.22,718.82,858.22,718.8z
					 M859.53,700.53l2.56,19.85h-3.7l-1.45-14.12l2.33-5.73H859.53z M861.22,718.35h0.61c0.09,0.56,0.33,0.99,0.71,1.29
					c0.38,0.3,0.82,0.46,1.32,0.46c0.28,0,0.43,0,0.45,0v0.28h-3.09V718.35z"/>
			</g>
			<g>
				<path class="st1" d="M870.65,702.95h-0.08c0-0.48-0.18-0.89-0.53-1.24c-0.35-0.34-0.77-0.51-1.25-0.51c-0.02,0-0.07,0-0.17,0
					s-0.15,0-0.17,0l-0.03-0.28h2.22V702.95z M870.65,718.35v2.03h-2.22v-0.28c0.02,0,0.08,0,0.18,0c0.1,0,0.16,0,0.18,0
					c0.48,0,0.9-0.17,1.24-0.52c0.34-0.34,0.52-0.75,0.54-1.24H870.65z M873.95,700.92v19.46h-3.39v-19.46H873.95z M877.02,700.92
					c1.46,0,2.67,0.23,3.63,0.68c0.96,0.45,1.67,1.08,2.16,1.88c0.48,0.8,0.73,1.72,0.75,2.78c0.02,0.93-0.14,1.76-0.49,2.5
					c-0.34,0.74-0.82,1.36-1.42,1.86c-0.6,0.5-1.28,0.87-2.03,1.1c-0.75,0.23-1.53,0.3-2.35,0.19c-0.82-0.1-1.6-0.38-2.36-0.85
					v-0.28c0.5,0.04,0.96,0.02,1.36-0.04c0.41-0.06,0.84-0.19,1.29-0.39c0.45-0.19,0.88-0.51,1.26-0.95
					c0.39-0.44,0.69-1.02,0.89-1.74c0.07-0.24,0.12-0.51,0.15-0.81c0.03-0.3,0.03-0.58,0.02-0.86c-0.02-1.22-0.34-2.2-0.97-2.93
					c-0.63-0.73-1.52-1.1-2.67-1.1h-2.36c-0.09-0.35-0.18-0.7-0.28-1.06H877.02z M873.87,718.35h0.08c0.02,0.48,0.2,0.9,0.54,1.24
					c0.34,0.34,0.75,0.52,1.24,0.52c0.22,0,0.34,0,0.36,0v0.28h-2.22V718.35z"/>
			</g>
			<g>
				<path class="st1" d="M899.76,700.53c2.13,0,4,0.41,5.6,1.24c1.6,0.83,2.84,2,3.71,3.52c0.87,1.52,1.31,3.31,1.31,5.37
					c0,2.06-0.44,3.85-1.31,5.37c-0.87,1.52-2.11,2.69-3.71,3.52s-3.47,1.24-5.6,1.24c-2.15,0-4.02-0.41-5.61-1.24
					c-1.6-0.83-2.83-2-3.7-3.52c-0.87-1.52-1.31-3.31-1.31-5.37c0-2.06,0.44-3.85,1.31-5.37c0.87-1.52,2.1-2.69,3.7-3.52
					C895.73,700.94,897.61,700.53,899.76,700.53z M899.76,719.71c1.39,0,2.6-0.37,3.63-1.11c1.03-0.74,1.83-1.79,2.39-3.14
					c0.57-1.35,0.85-2.96,0.85-4.81c0-1.85-0.28-3.46-0.85-4.81c-0.56-1.35-1.36-2.4-2.39-3.14c-1.03-0.74-2.24-1.11-3.63-1.11
					c-1.39,0-2.6,0.37-3.63,1.11c-1.03,0.74-1.83,1.79-2.39,3.14c-0.57,1.35-0.85,2.96-0.85,4.81c0,1.85,0.28,3.46,0.85,4.81
					c0.57,1.35,1.36,2.4,2.39,3.14C897.16,719.35,898.37,719.71,899.76,719.71z"/>
			</g>
			<g>
				<path class="st1" d="M921.86,700.53c0.35,0,0.77,0.02,1.25,0.06c0.48,0.04,0.97,0.09,1.46,0.15c0.49,0.06,0.93,0.13,1.32,0.19
					c0.39,0.06,0.66,0.13,0.81,0.21l-0.22,3.53h-0.28c0-0.95-0.34-1.7-1.02-2.25c-0.68-0.55-1.55-0.83-2.63-0.83
					c-1.08,0-1.93,0.28-2.57,0.83c-0.64,0.56-0.97,1.23-0.99,2.03c-0.04,0.46,0.1,0.91,0.4,1.35c0.3,0.43,0.72,0.84,1.24,1.21
					l5.37,3.98c0.76,0.5,1.32,1.11,1.67,1.82s0.51,1.51,0.47,2.4c-0.05,1.71-0.67,3.06-1.85,4.06c-1.18,1-2.78,1.5-4.8,1.5
					c-0.69,0-1.38-0.06-2.1-0.18c-0.71-0.12-1.37-0.31-1.96-0.56c-0.59-0.25-1.07-0.55-1.42-0.91c-0.11-0.37-0.16-0.82-0.14-1.35
					c0.02-0.53,0.09-1.08,0.22-1.64c0.13-0.56,0.29-1.04,0.47-1.43h0.25c-0.07,0.95,0.08,1.8,0.47,2.57
					c0.39,0.77,0.96,1.37,1.71,1.81c0.75,0.43,1.63,0.64,2.65,0.62c1.15-0.03,2.07-0.36,2.77-0.97c0.7-0.61,1.04-1.4,1.04-2.36
					c0-0.56-0.15-1.06-0.44-1.52c-0.3-0.45-0.76-0.87-1.39-1.24l-5.03-3.81c-0.85-0.56-1.46-1.23-1.82-2.02
					c-0.36-0.79-0.51-1.61-0.46-2.46c0.05-0.89,0.31-1.7,0.75-2.43c0.44-0.73,1.07-1.31,1.88-1.74
					C919.76,700.75,920.73,700.53,921.86,700.53z M926.73,700.81l-0.03,0.58h-2.89v-0.58H926.73z"/>
			</g>
			<g>
				<path class="st1" d="M935.76,702.95h-0.08c-0.02-0.48-0.2-0.89-0.54-1.24c-0.34-0.34-0.76-0.51-1.24-0.51h-0.36v-0.28h2.22
					V702.95z M935.76,718.35v2.03h-2.22v-0.28h0.36c0.48,0,0.89-0.17,1.24-0.52c0.34-0.34,0.52-0.75,0.54-1.24H935.76z
					 M939.07,700.92v19.46h-3.39v-19.46H939.07z M946.69,700.92V702h-7.7v-1.08H946.69z M945.38,710.26v1.06h-6.39v-1.06H945.38z
					 M946.44,719.3l0.47,1.09h-7.92v-1.09H946.44z M948.38,715.1l-1.39,5.28h-5.2l1-1.09c0.95,0,1.76-0.17,2.45-0.51
					c0.68-0.34,1.26-0.83,1.72-1.47c0.46-0.64,0.84-1.37,1.14-2.21H948.38z M945.38,707.93v2.39h-2.31v-0.05
					c0.57-0.02,1.06-0.22,1.45-0.61c0.39-0.39,0.58-0.87,0.58-1.44v-0.28H945.38z M945.38,711.26v2.39h-0.28v-0.31
					c0-0.57-0.19-1.06-0.58-1.45c-0.39-0.39-0.87-0.58-1.45-0.58v-0.05H945.38z M946.69,700.42v0.81l-3.39-0.3
					c0.41,0,0.84-0.03,1.29-0.08c0.45-0.05,0.88-0.12,1.26-0.19S946.52,700.5,946.69,700.42z M946.69,701.92v2.89h-0.28v-0.39
					c0-0.7-0.22-1.28-0.67-1.74c-0.44-0.45-1.04-0.69-1.78-0.71v-0.05H946.69z"/>
			</g>
			<g>
				<path class="st1" d="M955.47,702.95h-0.08c-0.02-0.48-0.2-0.89-0.54-1.24c-0.34-0.34-0.76-0.51-1.24-0.51c-0.02,0-0.08,0-0.18,0
					c-0.1,0-0.16,0-0.18,0v-0.28h2.22V702.95z M955.47,718.35v2.03h-2.22v-0.28c0.02,0,0.08,0,0.18,0c0.1,0,0.16,0,0.18,0
					c0.48,0,0.9-0.17,1.24-0.52c0.34-0.34,0.52-0.75,0.54-1.24H955.47z M958.78,700.92v19.46h-3.39v-19.46H958.78z M962.12,700.92
					c0.83,0,1.63,0.1,2.38,0.3s1.41,0.52,1.99,0.95c0.57,0.43,1.02,0.97,1.35,1.63c0.32,0.66,0.49,1.44,0.49,2.35
					c0,0.82-0.18,1.62-0.53,2.42c-0.35,0.8-0.87,1.46-1.56,1.99c-0.69,0.53-1.53,0.83-2.53,0.9c0.5,0.17,0.98,0.48,1.43,0.93
					c0.45,0.46,0.83,0.91,1.13,1.35c0.02,0.02,0.13,0.19,0.35,0.51c0.21,0.32,0.48,0.72,0.79,1.18c0.31,0.46,0.64,0.93,0.99,1.39
					c0.34,0.46,0.64,0.85,0.9,1.17c0.41,0.48,0.78,0.88,1.12,1.18c0.34,0.31,0.71,0.54,1.1,0.7c0.39,0.16,0.84,0.24,1.34,0.24v0.28
					h-2.31c-0.96,0-1.82-0.1-2.57-0.31c-0.75-0.2-1.4-0.51-1.96-0.92c-0.56-0.41-1.04-0.92-1.45-1.53
					c-0.11-0.17-0.27-0.42-0.47-0.77c-0.2-0.34-0.43-0.73-0.67-1.15c-0.24-0.42-0.48-0.84-0.71-1.24c-0.23-0.4-0.43-0.75-0.58-1.07
					c-0.16-0.31-0.26-0.54-0.32-0.67c-0.3-0.54-0.62-0.97-0.97-1.31s-0.73-0.52-1.14-0.56v-0.28c0.04,0,0.16,0,0.36,0.01
					c0.2,0.01,0.44,0.01,0.7-0.01c0.5-0.02,1.01-0.11,1.51-0.28c0.51-0.17,0.97-0.48,1.38-0.93c0.41-0.45,0.7-1.09,0.89-1.91
					c0.04-0.17,0.07-0.38,0.11-0.64s0.05-0.53,0.03-0.81c-0.05-1.3-0.39-2.28-1-2.95c-0.61-0.67-1.39-1.02-2.33-1.06
					c-0.35-0.02-0.72-0.02-1.11-0.01c-0.39,0.01-0.73,0.01-1.02,0.01c-0.29,0-0.46,0-0.51,0c0-0.02-0.02-0.12-0.07-0.3
					c-0.04-0.18-0.11-0.45-0.21-0.81H962.12z M958.7,718.35h0.08c0,0.48,0.18,0.9,0.53,1.24c0.35,0.34,0.77,0.52,1.25,0.52
					c0.02,0,0.13,0,0.33,0v0.28h-2.2V718.35z"/>
			</g>
			<g>
				<path class="st1" d="M987.28,700.92h1.47v24.46h-1.47V700.92z"/>
			</g>
			<g>
				<path class="st1" d="M1025.95,700.53c2.13,0,4,0.41,5.6,1.24c1.6,0.83,2.84,2,3.71,3.52c0.87,1.52,1.31,3.31,1.31,5.37
					c0,2.06-0.44,3.85-1.31,5.37c-0.87,1.52-2.11,2.69-3.71,3.52c-1.6,0.83-3.47,1.24-5.6,1.24c-2.15,0-4.02-0.41-5.61-1.24
					c-1.6-0.83-2.83-2-3.7-3.52c-0.87-1.52-1.31-3.31-1.31-5.37c0-2.06,0.44-3.85,1.31-5.37c0.87-1.52,2.1-2.69,3.7-3.52
					C1021.93,700.94,1023.8,700.53,1025.95,700.53z M1025.95,719.71c1.39,0,2.6-0.37,3.63-1.11c1.03-0.74,1.83-1.79,2.39-3.14
					c0.57-1.35,0.85-2.96,0.85-4.81c0-1.85-0.28-3.46-0.85-4.81c-0.56-1.35-1.36-2.4-2.39-3.14c-1.03-0.74-2.24-1.11-3.63-1.11
					s-2.6,0.37-3.63,1.11c-1.03,0.74-1.83,1.79-2.39,3.14c-0.57,1.35-0.85,2.96-0.85,4.81c0,1.85,0.28,3.46,0.85,4.81
					c0.57,1.35,1.36,2.4,2.39,3.14C1023.35,719.35,1024.56,719.71,1025.95,719.71z"/>
			</g>
			<g>
				<path class="st1" d="M1043.66,702.95h-0.08c-0.02-0.48-0.2-0.89-0.54-1.24c-0.34-0.34-0.76-0.51-1.24-0.51
					c-0.02,0-0.08,0-0.18,0c-0.1,0-0.16,0-0.18,0v-0.28h2.22V702.95z M1043.66,718.35v2.03h-2.22v-0.28c0.02,0,0.08,0,0.18,0
					c0.1,0,0.16,0,0.18,0c0.48,0,0.9-0.17,1.24-0.52c0.34-0.34,0.52-0.75,0.54-1.24H1043.66z M1046.97,700.92v19.46h-3.39v-19.46
					H1046.97z M1050.3,700.92c0.83,0,1.63,0.1,2.38,0.3s1.41,0.52,1.99,0.95c0.57,0.43,1.02,0.97,1.35,1.63
					c0.32,0.66,0.49,1.44,0.49,2.35c0,0.82-0.18,1.62-0.53,2.42c-0.35,0.8-0.87,1.46-1.56,1.99c-0.69,0.53-1.53,0.83-2.53,0.9
					c0.5,0.17,0.98,0.48,1.43,0.93c0.45,0.46,0.83,0.91,1.13,1.35c0.02,0.02,0.13,0.19,0.35,0.51c0.21,0.32,0.48,0.72,0.79,1.18
					c0.31,0.46,0.64,0.93,0.99,1.39c0.34,0.46,0.64,0.85,0.9,1.17c0.41,0.48,0.78,0.88,1.12,1.18c0.34,0.31,0.71,0.54,1.1,0.7
					c0.39,0.16,0.84,0.24,1.34,0.24v0.28h-2.31c-0.96,0-1.82-0.1-2.57-0.31c-0.75-0.2-1.4-0.51-1.96-0.92
					c-0.56-0.41-1.04-0.92-1.45-1.53c-0.11-0.17-0.27-0.42-0.47-0.77c-0.2-0.34-0.43-0.73-0.67-1.15c-0.24-0.42-0.48-0.84-0.71-1.24
					c-0.23-0.4-0.43-0.75-0.58-1.07c-0.16-0.31-0.26-0.54-0.32-0.67c-0.3-0.54-0.62-0.97-0.97-1.31s-0.73-0.52-1.14-0.56v-0.28
					c0.04,0,0.16,0,0.36,0.01c0.2,0.01,0.44,0.01,0.7-0.01c0.5-0.02,1.01-0.11,1.51-0.28c0.51-0.17,0.97-0.48,1.38-0.93
					c0.41-0.45,0.7-1.09,0.89-1.91c0.04-0.17,0.07-0.38,0.11-0.64c0.04-0.26,0.05-0.53,0.03-0.81c-0.05-1.3-0.39-2.28-1-2.95
					c-0.61-0.67-1.39-1.02-2.33-1.06c-0.35-0.02-0.72-0.02-1.11-0.01c-0.39,0.01-0.73,0.01-1.02,0.01c-0.29,0-0.46,0-0.51,0
					c0-0.02-0.02-0.12-0.07-0.3c-0.04-0.18-0.11-0.45-0.21-0.81H1050.3z M1046.89,718.35h0.08c0,0.48,0.18,0.9,0.53,1.24
					c0.35,0.34,0.77,0.52,1.25,0.52c0.02,0,0.13,0,0.33,0v0.28h-2.2V718.35z"/>
			</g>
			<g>
				<path class="st1" d="M1081.94,712.26l0.05,4.64c-0.43,0.72-0.99,1.37-1.7,1.96c-0.7,0.58-1.56,1.05-2.57,1.39
					c-1.01,0.34-2.19,0.51-3.54,0.51c-2.15-0.02-4.04-0.43-5.67-1.25c-1.63-0.81-2.9-1.98-3.79-3.49c-0.9-1.51-1.35-3.31-1.35-5.41
					c0-2.06,0.45-3.84,1.33-5.35c0.89-1.51,2.15-2.68,3.78-3.5c1.63-0.82,3.57-1.24,5.81-1.24c1.44,0,2.74,0.16,3.89,0.49
					c1.15,0.32,2.12,0.71,2.92,1.15l0.22,4.48h-0.25c-0.46-1.76-1.28-3.05-2.46-3.85c-1.18-0.81-2.55-1.21-4.13-1.21
					c-1.52,0-2.83,0.37-3.93,1.1c-1.1,0.73-1.96,1.77-2.56,3.12c-0.6,1.34-0.9,2.93-0.9,4.77c0,1.84,0.29,3.43,0.88,4.8
					s1.41,2.42,2.47,3.17s2.31,1.14,3.74,1.18c1.39,0,2.6-0.23,3.63-0.71c1.03-0.47,1.87-1.25,2.53-2.35
					c0.66-1.09,1.12-2.56,1.38-4.39H1081.94z"/>
			</g>
			<g>
				<path class="st1" d="M1089.76,702.95h-0.08c-0.02-0.48-0.2-0.89-0.54-1.24c-0.34-0.34-0.76-0.51-1.24-0.51h-0.36v-0.28h2.22
					V702.95z M1089.76,718.35v2.03h-2.22v-0.28h0.36c0.48,0,0.89-0.17,1.24-0.52c0.34-0.34,0.52-0.75,0.54-1.24H1089.76z
					 M1093.06,700.92v19.46h-3.39v-19.46H1093.06z M1103.1,710.18v1.06h-10.31v-1.06H1103.1z M1092.98,702.95v-2.03h2.22v0.28
					c-0.02,0-0.14,0-0.36,0c-0.48,0-0.9,0.17-1.24,0.51c-0.34,0.34-0.53,0.76-0.54,1.24H1092.98z M1092.98,718.35h0.08
					c0.02,0.48,0.2,0.9,0.54,1.24c0.34,0.34,0.75,0.52,1.24,0.52c0.22,0,0.34,0,0.36,0v0.28h-2.22V718.35z M1102.93,702.95h-0.08
					c0-0.48-0.18-0.89-0.53-1.24c-0.35-0.34-0.77-0.51-1.25-0.51c-0.22,0-0.34,0-0.36,0v-0.28h2.22V702.95z M1102.93,718.35v2.03
					h-2.22v-0.28c0.02,0,0.14,0,0.36,0c0.48,0,0.9-0.17,1.25-0.52c0.35-0.34,0.53-0.75,0.53-1.24H1102.93z M1106.24,700.92v19.46
					h-3.39v-19.46H1106.24z M1106.16,702.95v-2.03h2.22v0.28h-0.36c-0.48,0-0.9,0.17-1.24,0.51c-0.34,0.34-0.52,0.76-0.54,1.24
					H1106.16z M1106.16,718.35h0.08c0.02,0.48,0.2,0.9,0.54,1.24c0.34,0.34,0.76,0.52,1.24,0.52h0.36v0.28h-2.22V718.35z"/>
			</g>
			<g>
				<path class="st1" d="M1116.03,702.95h-0.08c-0.02-0.48-0.2-0.89-0.54-1.24c-0.34-0.34-0.76-0.51-1.24-0.51h-0.36v-0.28h2.22
					V702.95z M1116.03,718.35v2.03h-2.22v-0.28h0.36c0.48,0,0.89-0.17,1.24-0.52c0.34-0.34,0.52-0.75,0.54-1.24H1116.03z
					 M1119.34,700.92v19.46h-3.39v-19.46H1119.34z M1126.95,700.92V702h-7.7v-1.08H1126.95z M1125.65,710.26v1.06h-6.39v-1.06
					H1125.65z M1126.7,719.3l0.47,1.09h-7.92v-1.09H1126.7z M1128.65,715.1l-1.39,5.28h-5.2l1-1.09c0.95,0,1.76-0.17,2.45-0.51
					c0.68-0.34,1.26-0.83,1.72-1.47c0.46-0.64,0.84-1.37,1.14-2.21H1128.65z M1125.65,707.93v2.39h-2.31v-0.05
					c0.57-0.02,1.06-0.22,1.45-0.61c0.39-0.39,0.58-0.87,0.58-1.44v-0.28H1125.65z M1125.65,711.26v2.39h-0.28v-0.31
					c0-0.57-0.19-1.06-0.58-1.45c-0.39-0.39-0.87-0.58-1.45-0.58v-0.05H1125.65z M1126.95,700.42v0.81l-3.39-0.3
					c0.41,0,0.84-0.03,1.29-0.08c0.45-0.05,0.88-0.12,1.26-0.19S1126.79,700.5,1126.95,700.42z M1126.95,701.92v2.89h-0.28v-0.39
					c0-0.7-0.22-1.28-0.67-1.74c-0.44-0.45-1.04-0.69-1.78-0.71v-0.05H1126.95z"/>
			</g>
			<g>
				<path class="st1" d="M1139.74,700.53c0.35,0,0.77,0.02,1.25,0.06c0.48,0.04,0.97,0.09,1.46,0.15c0.49,0.06,0.93,0.13,1.32,0.19
					c0.39,0.06,0.66,0.13,0.81,0.21l-0.22,3.53h-0.28c0-0.95-0.34-1.7-1.02-2.25c-0.68-0.55-1.55-0.83-2.63-0.83
					s-1.93,0.28-2.57,0.83c-0.64,0.56-0.97,1.23-0.99,2.03c-0.04,0.46,0.1,0.91,0.4,1.35c0.3,0.43,0.72,0.84,1.24,1.21l5.37,3.98
					c0.76,0.5,1.32,1.11,1.67,1.82s0.51,1.51,0.47,2.4c-0.05,1.71-0.67,3.06-1.85,4.06c-1.18,1-2.78,1.5-4.8,1.5
					c-0.69,0-1.38-0.06-2.1-0.18c-0.71-0.12-1.37-0.31-1.96-0.56c-0.59-0.25-1.07-0.55-1.42-0.91c-0.11-0.37-0.16-0.82-0.14-1.35
					c0.02-0.53,0.09-1.08,0.22-1.64c0.13-0.56,0.29-1.04,0.47-1.43h0.25c-0.07,0.95,0.08,1.8,0.47,2.57
					c0.39,0.77,0.96,1.37,1.71,1.81c0.75,0.43,1.63,0.64,2.65,0.62c1.15-0.03,2.07-0.36,2.77-0.97c0.7-0.61,1.04-1.4,1.04-2.36
					c0-0.56-0.15-1.06-0.44-1.52c-0.3-0.45-0.76-0.87-1.39-1.24l-5.03-3.81c-0.85-0.56-1.46-1.23-1.82-2.02
					c-0.36-0.79-0.51-1.61-0.46-2.46c0.05-0.89,0.31-1.7,0.75-2.43c0.44-0.73,1.07-1.31,1.88-1.74
					C1137.64,700.75,1138.61,700.53,1139.74,700.53z M1144.61,700.81l-0.03,0.58h-2.89v-0.58H1144.61z"/>
			</g>
			<g>
				<path class="st1" d="M1150.64,700.39c0.19,0.07,0.47,0.15,0.85,0.22c0.38,0.07,0.8,0.14,1.26,0.19
					c0.46,0.05,0.89,0.08,1.28,0.08l-3.39,0.31V700.39z M1167.85,700.89v1.06h-17.21v-1.06H1167.85z M1153.34,701.87v0.08
					c-0.72,0.02-1.31,0.25-1.75,0.7c-0.44,0.44-0.67,1.03-0.67,1.75v0.36l-0.28,0.03v-2.92H1153.34z M1157.65,718.35v2.03h-2.22
					v-0.28h0.36c0.48,0,0.9-0.17,1.24-0.52c0.34-0.34,0.52-0.75,0.54-1.24H1157.65z M1160.96,701v19.38h-3.39V701H1160.96z
					 M1160.87,718.35h0.08c0.02,0.48,0.2,0.9,0.54,1.24c0.34,0.34,0.76,0.52,1.24,0.52h0.36v0.28h-2.22V718.35z M1167.85,700.39
					v0.81l-3.39-0.31c0.41,0,0.84-0.03,1.29-0.08c0.45-0.05,0.88-0.12,1.27-0.19C1167.41,700.54,1167.68,700.47,1167.85,700.39z
					 M1167.85,701.87v2.92l-0.28-0.03v-0.36c0-0.72-0.22-1.31-0.67-1.75c-0.44-0.45-1.03-0.68-1.75-0.7v-0.08H1167.85z"/>
			</g>
			<g>
				<path class="st1" d="M1174.66,702.95h-0.08c-0.02-0.48-0.2-0.89-0.54-1.24c-0.34-0.34-0.76-0.51-1.24-0.51
					c-0.02,0-0.08,0-0.18,0s-0.16,0-0.18,0v-0.28h2.22V702.95z M1174.66,718.35v2.03h-2.22v-0.28c0.02,0,0.08,0,0.18,0
					s0.16,0,0.18,0c0.48,0,0.9-0.17,1.24-0.52c0.34-0.34,0.52-0.75,0.54-1.24H1174.66z M1177.97,700.92v19.46h-3.39v-19.46H1177.97z
					 M1181.31,700.92c0.83,0,1.63,0.1,2.38,0.3c0.75,0.2,1.41,0.52,1.99,0.95c0.57,0.43,1.02,0.97,1.35,1.63
					c0.32,0.66,0.49,1.44,0.49,2.35c0,0.82-0.18,1.62-0.53,2.42c-0.35,0.8-0.87,1.46-1.56,1.99c-0.69,0.53-1.53,0.83-2.53,0.9
					c0.5,0.17,0.98,0.48,1.43,0.93c0.45,0.46,0.83,0.91,1.13,1.35c0.02,0.02,0.13,0.19,0.35,0.51c0.21,0.32,0.48,0.72,0.79,1.18
					c0.31,0.46,0.64,0.93,0.99,1.39c0.34,0.46,0.64,0.85,0.9,1.17c0.41,0.48,0.78,0.88,1.12,1.18c0.34,0.31,0.71,0.54,1.1,0.7
					c0.39,0.16,0.84,0.24,1.34,0.24v0.28h-2.31c-0.96,0-1.82-0.1-2.57-0.31c-0.75-0.2-1.4-0.51-1.96-0.92
					c-0.56-0.41-1.04-0.92-1.45-1.53c-0.11-0.17-0.27-0.42-0.47-0.77c-0.2-0.34-0.43-0.73-0.67-1.15c-0.24-0.42-0.48-0.84-0.71-1.24
					c-0.23-0.4-0.43-0.75-0.58-1.07c-0.16-0.31-0.26-0.54-0.32-0.67c-0.3-0.54-0.62-0.97-0.97-1.31s-0.73-0.52-1.14-0.56v-0.28
					c0.04,0,0.16,0,0.36,0.01c0.2,0.01,0.44,0.01,0.7-0.01c0.5-0.02,1.01-0.11,1.51-0.28c0.51-0.17,0.97-0.48,1.38-0.93
					c0.41-0.45,0.7-1.09,0.89-1.91c0.04-0.17,0.07-0.38,0.11-0.64c0.04-0.26,0.05-0.53,0.03-0.81c-0.05-1.3-0.39-2.28-1-2.95
					c-0.61-0.67-1.39-1.02-2.33-1.06c-0.35-0.02-0.72-0.02-1.11-0.01c-0.39,0.01-0.73,0.01-1.02,0.01s-0.46,0-0.51,0
					c0-0.02-0.02-0.12-0.07-0.3c-0.04-0.18-0.11-0.45-0.21-0.81H1181.31z M1177.89,718.35h0.08c0,0.48,0.18,0.9,0.53,1.24
					c0.35,0.34,0.77,0.52,1.25,0.52c0.02,0,0.13,0,0.33,0v0.28h-2.2V718.35z"/>
			</g>
			<g>
				<path class="st1" d="M1197.38,718.35c-0.15,0.37-0.18,0.69-0.08,0.95s0.25,0.46,0.47,0.6c0.22,0.14,0.44,0.21,0.67,0.21h0.25
					v0.28h-5.84v-0.28h0.25c0.43,0,0.87-0.13,1.32-0.4c0.45-0.27,0.83-0.72,1.12-1.35H1197.38z M1203.35,700.42l0.14,2.92
					l-6.92,16.96h-1.89l7.17-16.49c0.04-0.07,0.12-0.25,0.24-0.54c0.12-0.29,0.26-0.62,0.42-0.99c0.16-0.37,0.29-0.73,0.4-1.07
					c0.11-0.34,0.17-0.61,0.19-0.79H1203.35z M1206.61,713.43v1.06h-8.37v-1.06H1206.61z M1203.35,700.42l8.78,19.79h-4.11
					l-5.98-15.35L1203.35,700.42z M1207.3,718.35h4c0.3,0.63,0.67,1.08,1.13,1.35c0.45,0.27,0.9,0.4,1.32,0.4h0.22v0.28h-7.98v-0.28
					h0.25c0.35,0,0.67-0.15,0.95-0.46C1207.47,719.34,1207.51,718.91,1207.3,718.35z"/>
			</g>
			<g>
				<path class="st1" d="M1214.28,700.39c0.19,0.07,0.47,0.15,0.85,0.22c0.38,0.07,0.8,0.14,1.26,0.19
					c0.46,0.05,0.89,0.08,1.28,0.08l-3.39,0.31V700.39z M1231.49,700.89v1.06h-17.21v-1.06H1231.49z M1216.98,701.87v0.08
					c-0.72,0.02-1.31,0.25-1.75,0.7c-0.44,0.44-0.67,1.03-0.67,1.75v0.36l-0.28,0.03v-2.92H1216.98z M1221.29,718.35v2.03h-2.22
					v-0.28h0.36c0.48,0,0.9-0.17,1.24-0.52c0.34-0.34,0.52-0.75,0.54-1.24H1221.29z M1224.6,701v19.38h-3.39V701H1224.6z
					 M1224.51,718.35h0.08c0.02,0.48,0.2,0.9,0.54,1.24c0.34,0.34,0.76,0.52,1.24,0.52h0.36v0.28h-2.22V718.35z M1231.49,700.39
					v0.81l-3.39-0.31c0.41,0,0.84-0.03,1.29-0.08c0.45-0.05,0.88-0.12,1.27-0.19C1231.05,700.54,1231.32,700.47,1231.49,700.39z
					 M1231.49,701.87v2.92l-0.28-0.03v-0.36c0-0.72-0.22-1.31-0.67-1.75c-0.44-0.45-1.03-0.68-1.75-0.7v-0.08H1231.49z"/>
			</g>
			<g>
				<path class="st1" d="M1246.45,700.53c2.13,0,4,0.41,5.6,1.24c1.6,0.83,2.84,2,3.71,3.52c0.87,1.52,1.31,3.31,1.31,5.37
					c0,2.06-0.44,3.85-1.31,5.37c-0.87,1.52-2.11,2.69-3.71,3.52c-1.6,0.83-3.47,1.24-5.6,1.24c-2.15,0-4.02-0.41-5.61-1.24
					c-1.6-0.83-2.83-2-3.7-3.52c-0.87-1.52-1.31-3.31-1.31-5.37c0-2.06,0.44-3.85,1.31-5.37c0.87-1.52,2.1-2.69,3.7-3.52
					C1242.43,700.94,1244.3,700.53,1246.45,700.53z M1246.45,719.71c1.39,0,2.6-0.37,3.63-1.11c1.03-0.74,1.83-1.79,2.39-3.14
					c0.57-1.35,0.85-2.96,0.85-4.81c0-1.85-0.28-3.46-0.85-4.81c-0.56-1.35-1.36-2.4-2.39-3.14c-1.03-0.74-2.24-1.11-3.63-1.11
					c-1.39,0-2.6,0.37-3.63,1.11c-1.03,0.74-1.83,1.79-2.39,3.14c-0.57,1.35-0.85,2.96-0.85,4.81c0,1.85,0.28,3.46,0.85,4.81
					c0.57,1.35,1.36,2.4,2.39,3.14C1243.85,719.35,1245.06,719.71,1246.45,719.71z"/>
			</g>
			<g>
				<path class="st1" d="M1264.16,702.95h-0.08c-0.02-0.48-0.2-0.89-0.54-1.24c-0.34-0.34-0.76-0.51-1.24-0.51
					c-0.02,0-0.08,0-0.18,0s-0.16,0-0.18,0v-0.28h2.22V702.95z M1264.16,718.35v2.03h-2.22v-0.28c0.02,0,0.08,0,0.18,0
					s0.16,0,0.18,0c0.48,0,0.9-0.17,1.24-0.52c0.34-0.34,0.52-0.75,0.54-1.24H1264.16z M1267.46,700.92v19.46h-3.39v-19.46H1267.46z
					 M1270.8,700.92c0.83,0,1.63,0.1,2.38,0.3s1.41,0.52,1.99,0.95c0.57,0.43,1.02,0.97,1.35,1.63c0.32,0.66,0.49,1.44,0.49,2.35
					c0,0.82-0.18,1.62-0.53,2.42c-0.35,0.8-0.87,1.46-1.56,1.99c-0.69,0.53-1.53,0.83-2.53,0.9c0.5,0.17,0.98,0.48,1.43,0.93
					c0.45,0.46,0.83,0.91,1.13,1.35c0.02,0.02,0.13,0.19,0.35,0.51c0.21,0.32,0.48,0.72,0.79,1.18c0.31,0.46,0.64,0.93,0.99,1.39
					c0.34,0.46,0.64,0.85,0.9,1.17c0.41,0.48,0.78,0.88,1.12,1.18c0.34,0.31,0.71,0.54,1.1,0.7c0.39,0.16,0.84,0.24,1.34,0.24v0.28
					h-2.31c-0.96,0-1.82-0.1-2.57-0.31c-0.75-0.2-1.4-0.51-1.96-0.92c-0.56-0.41-1.04-0.92-1.45-1.53
					c-0.11-0.17-0.27-0.42-0.47-0.77c-0.2-0.34-0.43-0.73-0.67-1.15c-0.24-0.42-0.48-0.84-0.71-1.24c-0.23-0.4-0.43-0.75-0.58-1.07
					c-0.16-0.31-0.26-0.54-0.32-0.67c-0.3-0.54-0.62-0.97-0.97-1.31s-0.73-0.52-1.14-0.56v-0.28c0.04,0,0.16,0,0.36,0.01
					c0.2,0.01,0.44,0.01,0.7-0.01c0.5-0.02,1.01-0.11,1.51-0.28c0.51-0.17,0.97-0.48,1.38-0.93c0.41-0.45,0.7-1.09,0.89-1.91
					c0.04-0.17,0.07-0.38,0.11-0.64c0.04-0.26,0.05-0.53,0.03-0.81c-0.05-1.3-0.39-2.28-1-2.95c-0.61-0.67-1.39-1.02-2.33-1.06
					c-0.35-0.02-0.72-0.02-1.11-0.01c-0.39,0.01-0.73,0.01-1.02,0.01s-0.46,0-0.51,0c0-0.02-0.02-0.12-0.07-0.3
					c-0.04-0.18-0.11-0.45-0.21-0.81H1270.8z M1267.38,718.35h0.08c0,0.48,0.18,0.9,0.53,1.24c0.35,0.34,0.77,0.52,1.25,0.52
					c0.02,0,0.13,0,0.33,0v0.28h-2.2V718.35z"/>
			</g>
			<g>
				<path class="st1" d="M1295.96,700.92h1.47v24.46h-1.47V700.92z"/>
			</g>
			<g>
				<path class="st1" d="M1326.07,702.95h-0.08c0-0.48-0.18-0.89-0.53-1.24c-0.35-0.34-0.77-0.51-1.25-0.51c-0.02,0-0.07,0-0.17,0
					s-0.15,0-0.17,0l-0.03-0.28h2.22V702.95z M1326.07,718.35v2.03h-2.22v-0.28c0.02,0,0.08,0,0.18,0s0.16,0,0.18,0
					c0.48,0,0.9-0.17,1.24-0.52c0.34-0.34,0.52-0.75,0.54-1.24H1326.07z M1329.38,700.92v19.46h-3.39v-19.46H1329.38z
					 M1332.44,700.92c1.46,0,2.67,0.23,3.63,0.68s1.67,1.08,2.16,1.88c0.48,0.8,0.73,1.72,0.75,2.78c0.02,0.93-0.14,1.76-0.49,2.5
					c-0.34,0.74-0.82,1.36-1.42,1.86c-0.6,0.5-1.28,0.87-2.03,1.1c-0.75,0.23-1.53,0.3-2.35,0.19c-0.82-0.1-1.6-0.38-2.36-0.85
					v-0.28c0.5,0.04,0.96,0.02,1.36-0.04c0.41-0.06,0.84-0.19,1.29-0.39c0.45-0.19,0.88-0.51,1.26-0.95
					c0.39-0.44,0.69-1.02,0.89-1.74c0.07-0.24,0.12-0.51,0.15-0.81s0.03-0.58,0.01-0.86c-0.02-1.22-0.34-2.2-0.97-2.93
					c-0.63-0.73-1.52-1.1-2.67-1.1h-2.36c-0.09-0.35-0.18-0.7-0.28-1.06H1332.44z M1329.3,718.35h0.08c0.02,0.48,0.2,0.9,0.54,1.24
					c0.34,0.34,0.75,0.52,1.24,0.52c0.22,0,0.34,0,0.36,0v0.28h-2.22V718.35z"/>
			</g>
			<g>
				<path class="st1" d="M1346.29,702.95h-0.08c-0.02-0.48-0.2-0.89-0.54-1.24c-0.34-0.34-0.76-0.51-1.24-0.51
					c-0.02,0-0.08,0-0.18,0c-0.1,0-0.16,0-0.18,0v-0.28h2.22V702.95z M1346.29,718.35v2.03h-2.22v-0.28c0.02,0,0.08,0,0.18,0
					c0.1,0,0.16,0,0.18,0c0.48,0,0.9-0.17,1.24-0.52c0.34-0.34,0.52-0.75,0.54-1.24H1346.29z M1349.59,700.92v19.46h-3.39v-19.46
					H1349.59z M1352.93,700.92c0.83,0,1.63,0.1,2.38,0.3s1.41,0.52,1.99,0.95c0.57,0.43,1.02,0.97,1.35,1.63
					c0.32,0.66,0.49,1.44,0.49,2.35c0,0.82-0.18,1.62-0.53,2.42c-0.35,0.8-0.87,1.46-1.56,1.99c-0.69,0.53-1.53,0.83-2.53,0.9
					c0.5,0.17,0.98,0.48,1.43,0.93c0.45,0.46,0.83,0.91,1.13,1.35c0.02,0.02,0.13,0.19,0.35,0.51c0.21,0.32,0.48,0.72,0.79,1.18
					c0.31,0.46,0.64,0.93,0.99,1.39c0.34,0.46,0.64,0.85,0.9,1.17c0.41,0.48,0.78,0.88,1.12,1.18c0.34,0.31,0.71,0.54,1.1,0.7
					c0.39,0.16,0.84,0.24,1.34,0.24v0.28h-2.31c-0.96,0-1.82-0.1-2.57-0.31c-0.75-0.2-1.4-0.51-1.96-0.92
					c-0.56-0.41-1.04-0.92-1.45-1.53c-0.11-0.17-0.27-0.42-0.47-0.77c-0.2-0.34-0.43-0.73-0.67-1.15c-0.24-0.42-0.48-0.84-0.71-1.24
					c-0.23-0.4-0.43-0.75-0.58-1.07c-0.16-0.31-0.26-0.54-0.32-0.67c-0.3-0.54-0.62-0.97-0.97-1.31s-0.73-0.52-1.14-0.56v-0.28
					c0.04,0,0.16,0,0.36,0.01c0.2,0.01,0.44,0.01,0.7-0.01c0.5-0.02,1.01-0.11,1.51-0.28c0.51-0.17,0.97-0.48,1.38-0.93
					c0.41-0.45,0.7-1.09,0.89-1.91c0.04-0.17,0.07-0.38,0.11-0.64c0.04-0.26,0.05-0.53,0.03-0.81c-0.05-1.3-0.39-2.28-1-2.95
					c-0.61-0.67-1.39-1.02-2.33-1.06c-0.35-0.02-0.72-0.02-1.11-0.01c-0.39,0.01-0.73,0.01-1.02,0.01c-0.29,0-0.46,0-0.51,0
					c0-0.02-0.02-0.12-0.07-0.3c-0.04-0.18-0.11-0.45-0.21-0.81H1352.93z M1349.51,718.35h0.08c0,0.48,0.18,0.9,0.53,1.24
					c0.35,0.34,0.77,0.52,1.25,0.52c0.02,0,0.13,0,0.33,0v0.28h-2.2V718.35z"/>
			</g>
			<g>
				<path class="st1" d="M1376.78,700.53c2.13,0,4,0.41,5.6,1.24c1.6,0.83,2.84,2,3.71,3.52c0.87,1.52,1.31,3.31,1.31,5.37
					c0,2.06-0.44,3.85-1.31,5.37c-0.87,1.52-2.11,2.69-3.71,3.52c-1.6,0.83-3.47,1.24-5.6,1.24c-2.15,0-4.02-0.41-5.61-1.24
					c-1.6-0.83-2.83-2-3.7-3.52c-0.87-1.52-1.31-3.31-1.31-5.37c0-2.06,0.44-3.85,1.31-5.37c0.87-1.52,2.1-2.69,3.7-3.52
					C1372.76,700.94,1374.63,700.53,1376.78,700.53z M1376.78,719.71c1.39,0,2.6-0.37,3.63-1.11c1.03-0.74,1.83-1.79,2.39-3.14
					c0.57-1.35,0.85-2.96,0.85-4.81c0-1.85-0.28-3.46-0.85-4.81c-0.56-1.35-1.36-2.4-2.39-3.14c-1.03-0.74-2.24-1.11-3.63-1.11
					s-2.6,0.37-3.63,1.11c-1.03,0.74-1.83,1.79-2.39,3.14c-0.57,1.35-0.85,2.96-0.85,4.81c0,1.85,0.28,3.46,0.85,4.81
					c0.57,1.35,1.36,2.4,2.39,3.14C1374.18,719.35,1375.39,719.71,1376.78,719.71z"/>
			</g>
			<g>
				<path class="st1" d="M1394.44,702.95h-0.08c0-0.48-0.17-0.89-0.53-1.24c-0.35-0.34-0.77-0.51-1.25-0.51h-0.33l-0.03-0.28h2.22
					V702.95z M1394.44,718.35v2.03h-2.22v-0.28h0.36c0.48,0,0.89-0.17,1.24-0.52c0.34-0.34,0.52-0.75,0.54-1.24H1394.44z
					 M1397.75,700.92v19.46h-3.39v-19.46H1397.75z M1402.08,700.92c2.11,0,3.95,0.39,5.52,1.18c1.56,0.79,2.77,1.92,3.63,3.38
					c0.85,1.46,1.28,3.19,1.28,5.17c0,1.98-0.43,3.7-1.28,5.16c-0.85,1.46-2.06,2.58-3.63,3.38c-1.57,0.8-3.41,1.19-5.52,1.19h-6.4
					l-0.03-1.06c0.35,0,0.79,0,1.32,0c0.53,0,1.07,0,1.64,0c0.57,0,1.09,0,1.59,0c0.49,0,1.04,0,1.65,0c1.43,0,2.65-0.36,3.68-1.07
					c1.03-0.71,1.83-1.72,2.4-3.02c0.57-1.3,0.86-2.83,0.86-4.59c0-1.76-0.29-3.29-0.86-4.59c-0.58-1.3-1.38-2.3-2.42-3.02
					c-1.04-0.71-2.26-1.07-3.67-1.07c-0.65,0-1.23,0-1.74,0s-1.06,0-1.65,0s-1.16,0-1.71,0c-0.55,0-1.01,0-1.37,0v-1.06H1402.08z"/>
			</g>
			<g>
				<path class="st1" d="M1419.24,700.92v1.67h-0.08c0-0.41-0.14-0.74-0.43-1c-0.29-0.26-0.63-0.39-1.04-0.39h-0.44v-0.28H1419.24z
					 M1422.55,700.92v12.23c0,1.32,0.23,2.46,0.68,3.45c0.45,0.98,1.1,1.74,1.93,2.28c0.83,0.54,1.81,0.81,2.92,0.81
					c1.19,0,2.2-0.25,3.06-0.76s1.52-1.22,1.99-2.14c0.47-0.92,0.71-2.01,0.71-3.27v-12.59h1.75v12.48c0,1.48-0.32,2.78-0.95,3.88
					c-0.63,1.1-1.53,1.96-2.71,2.57c-1.18,0.61-2.57,0.92-4.19,0.92c-1.82,0-3.37-0.3-4.66-0.9c-1.29-0.6-2.26-1.45-2.93-2.56
					c-0.67-1.1-1-2.39-1-3.88v-12.51H1422.55z M1424.46,700.92v0.28h-0.44c-0.41,0-0.76,0.13-1.04,0.39s-0.43,0.59-0.43,1h-0.05
					v-1.67H1424.46z M1433.92,700.92v1.67h-0.08c0-0.41-0.14-0.74-0.43-1c-0.29-0.26-0.64-0.39-1.04-0.39h-0.45v-0.28H1433.92z
					 M1437.5,700.92v0.28h-0.44c-0.41,0-0.76,0.13-1.04,0.39c-0.29,0.26-0.43,0.59-0.43,1h-0.06v-1.67H1437.5z"/>
			</g>
			<g>
				<path class="st1" d="M1461.05,712.26l0.05,4.64c-0.43,0.72-0.99,1.37-1.7,1.96c-0.7,0.58-1.56,1.05-2.57,1.39
					c-1.01,0.34-2.19,0.51-3.54,0.51c-2.15-0.02-4.04-0.43-5.67-1.25c-1.63-0.81-2.9-1.98-3.79-3.49c-0.9-1.51-1.35-3.31-1.35-5.41
					c0-2.06,0.45-3.84,1.33-5.35c0.89-1.51,2.15-2.68,3.78-3.5c1.63-0.82,3.57-1.24,5.81-1.24c1.44,0,2.74,0.16,3.89,0.49
					c1.15,0.32,2.12,0.71,2.92,1.15l0.22,4.48h-0.25c-0.46-1.76-1.28-3.05-2.46-3.85c-1.18-0.81-2.55-1.21-4.13-1.21
					c-1.52,0-2.83,0.37-3.93,1.1c-1.1,0.73-1.96,1.77-2.56,3.12c-0.6,1.34-0.9,2.93-0.9,4.77c0,1.84,0.29,3.43,0.88,4.8
					c0.58,1.36,1.41,2.42,2.47,3.17s2.31,1.14,3.74,1.18c1.39,0,2.6-0.23,3.63-0.71c1.03-0.47,1.87-1.25,2.53-2.35
					c0.66-1.09,1.12-2.56,1.38-4.39H1461.05z"/>
			</g>
			<g>
				<path class="st1" d="M1468.86,702.95h-0.08c-0.02-0.48-0.2-0.89-0.54-1.24c-0.34-0.34-0.76-0.51-1.24-0.51h-0.36v-0.28h2.22
					V702.95z M1468.86,718.35v2.03h-2.22v-0.28h0.36c0.48,0,0.89-0.17,1.24-0.52c0.34-0.34,0.52-0.75,0.54-1.24H1468.86z
					 M1472.17,700.92v19.46h-3.39v-19.46H1472.17z M1479.79,700.92V702h-7.7v-1.08H1479.79z M1478.48,710.26v1.06h-6.39v-1.06
					H1478.48z M1479.54,719.3l0.47,1.09h-7.92v-1.09H1479.54z M1481.49,715.1l-1.39,5.28h-5.2l1-1.09c0.95,0,1.76-0.17,2.45-0.51
					c0.68-0.34,1.26-0.83,1.72-1.47c0.46-0.64,0.84-1.37,1.14-2.21H1481.49z M1478.48,707.93v2.39h-2.31v-0.05
					c0.57-0.02,1.06-0.22,1.45-0.61c0.39-0.39,0.58-0.87,0.58-1.44v-0.28H1478.48z M1478.48,711.26v2.39h-0.28v-0.31
					c0-0.57-0.19-1.06-0.58-1.45c-0.39-0.39-0.87-0.58-1.45-0.58v-0.05H1478.48z M1479.79,700.42v0.81l-3.39-0.3
					c0.41,0,0.84-0.03,1.29-0.08s0.88-0.12,1.26-0.19C1479.35,700.57,1479.62,700.5,1479.79,700.42z M1479.79,701.92v2.89h-0.28
					v-0.39c0-0.7-0.22-1.28-0.67-1.74c-0.44-0.45-1.04-0.69-1.78-0.71v-0.05H1479.79z"/>
			</g>
			<g>
				<path class="st1" d="M1488.58,702.95h-0.08c-0.02-0.48-0.2-0.89-0.54-1.24c-0.34-0.34-0.76-0.51-1.24-0.51
					c-0.02,0-0.08,0-0.18,0s-0.16,0-0.18,0v-0.28h2.22V702.95z M1488.58,718.35v2.03h-2.22v-0.28c0.02,0,0.08,0,0.18,0
					s0.16,0,0.18,0c0.48,0,0.9-0.17,1.24-0.52c0.34-0.34,0.52-0.75,0.54-1.24H1488.58z M1491.88,700.92v19.46h-3.39v-19.46H1491.88z
					 M1495.22,700.92c0.83,0,1.63,0.1,2.38,0.3c0.75,0.2,1.41,0.52,1.99,0.95c0.57,0.43,1.02,0.97,1.35,1.63
					c0.32,0.66,0.49,1.44,0.49,2.35c0,0.82-0.18,1.62-0.53,2.42c-0.35,0.8-0.87,1.46-1.56,1.99c-0.69,0.53-1.53,0.83-2.53,0.9
					c0.5,0.17,0.98,0.48,1.43,0.93c0.45,0.46,0.83,0.91,1.13,1.35c0.02,0.02,0.13,0.19,0.35,0.51c0.21,0.32,0.48,0.72,0.79,1.18
					c0.31,0.46,0.64,0.93,0.99,1.39c0.34,0.46,0.64,0.85,0.9,1.17c0.41,0.48,0.78,0.88,1.13,1.18c0.34,0.31,0.71,0.54,1.1,0.7
					c0.39,0.16,0.84,0.24,1.34,0.24v0.28h-2.31c-0.96,0-1.82-0.1-2.57-0.31c-0.75-0.2-1.4-0.51-1.96-0.92
					c-0.56-0.41-1.04-0.92-1.45-1.53c-0.11-0.17-0.27-0.42-0.47-0.77c-0.2-0.34-0.43-0.73-0.67-1.15c-0.24-0.42-0.48-0.84-0.71-1.24
					c-0.23-0.4-0.43-0.75-0.58-1.07c-0.16-0.31-0.26-0.54-0.32-0.67c-0.3-0.54-0.62-0.97-0.97-1.31c-0.35-0.33-0.73-0.52-1.14-0.56
					v-0.28c0.04,0,0.16,0,0.36,0.01c0.2,0.01,0.44,0.01,0.7-0.01c0.5-0.02,1.01-0.11,1.51-0.28c0.51-0.17,0.97-0.48,1.38-0.93
					c0.41-0.45,0.7-1.09,0.89-1.91c0.04-0.17,0.07-0.38,0.11-0.64c0.04-0.26,0.05-0.53,0.03-0.81c-0.05-1.3-0.39-2.28-1-2.95
					c-0.61-0.67-1.39-1.02-2.33-1.06c-0.35-0.02-0.72-0.02-1.11-0.01c-0.39,0.01-0.73,0.01-1.02,0.01s-0.46,0-0.51,0
					c0-0.02-0.02-0.12-0.07-0.3c-0.04-0.18-0.11-0.45-0.21-0.81H1495.22z M1491.8,718.35h0.08c0,0.48,0.18,0.9,0.53,1.24
					c0.35,0.34,0.77,0.52,1.25,0.52c0.02,0,0.13,0,0.33,0v0.28h-2.2V718.35z"/>
			</g>
			<g>
				<path class="st1" d="M1520.38,700.92h1.47v24.46h-1.47V700.92z"/>
			</g>
			<g>
				<path class="st1" d="M1554.33,700.53c0.35,0,0.77,0.02,1.25,0.06c0.48,0.04,0.97,0.09,1.46,0.15c0.49,0.06,0.93,0.13,1.32,0.19
					c0.39,0.06,0.66,0.13,0.81,0.21l-0.22,3.53h-0.28c0-0.95-0.34-1.7-1.02-2.25c-0.68-0.55-1.55-0.83-2.63-0.83
					s-1.93,0.28-2.57,0.83c-0.64,0.56-0.97,1.23-0.99,2.03c-0.04,0.46,0.1,0.91,0.4,1.35c0.3,0.43,0.72,0.84,1.24,1.21l5.37,3.98
					c0.76,0.5,1.32,1.11,1.67,1.82s0.51,1.51,0.47,2.4c-0.05,1.71-0.67,3.06-1.85,4.06c-1.18,1-2.78,1.5-4.8,1.5
					c-0.69,0-1.38-0.06-2.1-0.18c-0.71-0.12-1.37-0.31-1.96-0.56c-0.59-0.25-1.07-0.55-1.42-0.91c-0.11-0.37-0.16-0.82-0.14-1.35
					c0.02-0.53,0.09-1.08,0.22-1.64c0.13-0.56,0.29-1.04,0.47-1.43h0.25c-0.07,0.95,0.08,1.8,0.47,2.57
					c0.39,0.77,0.96,1.37,1.71,1.81c0.75,0.43,1.63,0.64,2.65,0.62c1.15-0.03,2.07-0.36,2.77-0.97c0.7-0.61,1.04-1.4,1.04-2.36
					c0-0.56-0.15-1.06-0.44-1.52c-0.3-0.45-0.76-0.87-1.39-1.24l-5.03-3.81c-0.85-0.56-1.46-1.23-1.82-2.02
					c-0.36-0.79-0.51-1.61-0.46-2.46c0.05-0.89,0.31-1.7,0.75-2.43c0.44-0.73,1.07-1.31,1.88-1.74
					C1552.23,700.75,1553.2,700.53,1554.33,700.53z M1559.19,700.81l-0.03,0.58h-2.89v-0.58H1559.19z"/>
			</g>
			<g>
				<path class="st1" d="M1565.23,700.39c0.19,0.07,0.47,0.15,0.85,0.22c0.38,0.07,0.8,0.14,1.26,0.19
					c0.46,0.05,0.89,0.08,1.28,0.08l-3.39,0.31V700.39z M1582.44,700.89v1.06h-17.21v-1.06H1582.44z M1567.92,701.87v0.08
					c-0.72,0.02-1.31,0.25-1.75,0.7c-0.44,0.44-0.67,1.03-0.67,1.75v0.36l-0.28,0.03v-2.92H1567.92z M1572.23,718.35v2.03h-2.22
					v-0.28h0.36c0.48,0,0.9-0.17,1.24-0.52c0.34-0.34,0.52-0.75,0.54-1.24H1572.23z M1575.54,701v19.38h-3.39V701H1575.54z
					 M1575.46,718.35h0.08c0.02,0.48,0.2,0.9,0.54,1.24c0.34,0.34,0.76,0.52,1.24,0.52h0.36v0.28h-2.22V718.35z M1582.44,700.39
					v0.81l-3.39-0.31c0.41,0,0.84-0.03,1.29-0.08c0.45-0.05,0.88-0.12,1.27-0.19S1582.27,700.47,1582.44,700.39z M1582.44,701.87
					v2.92l-0.28-0.03v-0.36c0-0.72-0.22-1.31-0.67-1.75c-0.44-0.45-1.03-0.68-1.75-0.7v-0.08H1582.44z"/>
			</g>
			<g>
				<path class="st1" d="M1597.39,700.53c2.13,0,4,0.41,5.6,1.24c1.6,0.83,2.84,2,3.71,3.52c0.87,1.52,1.31,3.31,1.31,5.37
					c0,2.06-0.44,3.85-1.31,5.37c-0.87,1.52-2.11,2.69-3.71,3.52c-1.6,0.83-3.47,1.24-5.6,1.24c-2.15,0-4.02-0.41-5.61-1.24
					c-1.6-0.83-2.83-2-3.7-3.52c-0.87-1.52-1.31-3.31-1.31-5.37c0-2.06,0.44-3.85,1.31-5.37c0.87-1.52,2.1-2.69,3.7-3.52
					C1593.37,700.94,1595.24,700.53,1597.39,700.53z M1597.39,719.71c1.39,0,2.6-0.37,3.63-1.11c1.03-0.74,1.83-1.79,2.39-3.14
					c0.57-1.35,0.85-2.96,0.85-4.81c0-1.85-0.28-3.46-0.85-4.81c-0.56-1.35-1.36-2.4-2.39-3.14c-1.03-0.74-2.24-1.11-3.63-1.11
					c-1.39,0-2.6,0.37-3.63,1.11c-1.03,0.74-1.83,1.79-2.39,3.14c-0.57,1.35-0.85,2.96-0.85,4.81c0,1.85,0.28,3.46,0.85,4.81
					c0.57,1.35,1.36,2.4,2.39,3.14C1594.79,719.35,1596,719.71,1597.39,719.71z"/>
			</g>
			<g>
				<path class="st1" d="M1615.1,702.95h-0.08c-0.02-0.48-0.2-0.89-0.54-1.24c-0.34-0.34-0.76-0.51-1.24-0.51c-0.02,0-0.08,0-0.18,0
					c-0.1,0-0.16,0-0.18,0v-0.28h2.22V702.95z M1615.1,718.35v2.03h-2.22v-0.28c0.02,0,0.08,0,0.18,0c0.1,0,0.16,0,0.18,0
					c0.48,0,0.9-0.17,1.24-0.52c0.34-0.34,0.52-0.75,0.54-1.24H1615.1z M1618.41,700.92v19.46h-3.39v-19.46H1618.41z
					 M1621.75,700.92c0.83,0,1.63,0.1,2.38,0.3c0.75,0.2,1.41,0.52,1.99,0.95c0.57,0.43,1.02,0.97,1.35,1.63
					c0.32,0.66,0.49,1.44,0.49,2.35c0,0.82-0.18,1.62-0.53,2.42c-0.35,0.8-0.87,1.46-1.56,1.99c-0.69,0.53-1.53,0.83-2.53,0.9
					c0.5,0.17,0.98,0.48,1.43,0.93c0.45,0.46,0.83,0.91,1.13,1.35c0.02,0.02,0.13,0.19,0.35,0.51c0.21,0.32,0.48,0.72,0.79,1.18
					c0.31,0.46,0.64,0.93,0.99,1.39c0.34,0.46,0.64,0.85,0.9,1.17c0.41,0.48,0.78,0.88,1.12,1.18c0.34,0.31,0.71,0.54,1.1,0.7
					c0.39,0.16,0.84,0.24,1.34,0.24v0.28h-2.31c-0.96,0-1.82-0.1-2.57-0.31c-0.75-0.2-1.4-0.51-1.96-0.92
					c-0.56-0.41-1.04-0.92-1.45-1.53c-0.11-0.17-0.27-0.42-0.47-0.77c-0.2-0.34-0.43-0.73-0.67-1.15c-0.24-0.42-0.48-0.84-0.71-1.24
					c-0.23-0.4-0.43-0.75-0.58-1.07c-0.16-0.31-0.26-0.54-0.32-0.67c-0.3-0.54-0.62-0.97-0.97-1.31s-0.73-0.52-1.14-0.56v-0.28
					c0.04,0,0.16,0,0.36,0.01c0.2,0.01,0.44,0.01,0.7-0.01c0.5-0.02,1.01-0.11,1.51-0.28c0.51-0.17,0.97-0.48,1.38-0.93
					c0.41-0.45,0.7-1.09,0.89-1.91c0.04-0.17,0.07-0.38,0.11-0.64c0.04-0.26,0.05-0.53,0.03-0.81c-0.05-1.3-0.39-2.28-1-2.95
					c-0.61-0.67-1.39-1.02-2.33-1.06c-0.35-0.02-0.72-0.02-1.11-0.01c-0.39,0.01-0.73,0.01-1.02,0.01c-0.29,0-0.46,0-0.51,0
					c0-0.02-0.02-0.12-0.07-0.3c-0.04-0.18-0.11-0.45-0.21-0.81H1621.75z M1618.33,718.35h0.08c0,0.48,0.18,0.9,0.53,1.24
					c0.35,0.34,0.77,0.52,1.25,0.52c0.02,0,0.13,0,0.33,0v0.28h-2.2V718.35z"/>
			</g>
			<g>
				<path class="st1" d="M1639.26,702.92l-3.92-0.08c-0.26-0.43-0.64-0.81-1.14-1.14c-0.5-0.33-1.05-0.5-1.64-0.5h-0.39v-0.28h8.43
					v0.28h-0.36c-0.41,0-0.72,0.19-0.93,0.57C1639.09,702.15,1639.08,702.53,1639.26,702.92z M1638.18,700.95l5.62,10.29l-3.03,0.58
					l-6.56-10.87H1638.18z M1640.71,718.35v2.03h-2.22v-0.28c0.22,0,0.34,0,0.36,0c0.48,0,0.89-0.17,1.24-0.52
					c0.34-0.34,0.52-0.75,0.54-1.24H1640.71z M1644.02,711.43v8.95h-3.39v-8.95H1644.02z M1648.66,700.95h2l-6.89,11.04l-1.28-0.28
					L1648.66,700.95z M1643.93,718.35h0.08c0,0.48,0.17,0.9,0.53,1.24c0.35,0.34,0.77,0.52,1.25,0.52h0.33v0.28h-2.2V718.35z
					 M1647.52,702.92c0.15-0.26,0.18-0.52,0.11-0.79c-0.07-0.27-0.21-0.49-0.4-0.67c-0.19-0.18-0.42-0.26-0.68-0.26h-0.33v-0.28
					h6.48v0.28h-0.39c-0.57,0-1.11,0.17-1.63,0.5c-0.51,0.33-0.9,0.71-1.18,1.14L1647.52,702.92z"/>
			</g>
			<g>
				<path class="st1" d="M1655.78,700.39c0.19,0.07,0.47,0.15,0.85,0.22c0.38,0.07,0.8,0.14,1.26,0.19
					c0.46,0.05,0.89,0.08,1.28,0.08l-3.39,0.31V700.39z M1672.99,700.89v1.06h-17.21v-1.06H1672.99z M1658.47,701.87v0.08
					c-0.72,0.02-1.31,0.25-1.75,0.7c-0.44,0.44-0.67,1.03-0.67,1.75v0.36l-0.28,0.03v-2.92H1658.47z M1662.78,718.35v2.03h-2.22
					v-0.28h0.36c0.48,0,0.9-0.17,1.24-0.52c0.34-0.34,0.52-0.75,0.54-1.24H1662.78z M1666.09,701v19.38h-3.39V701H1666.09z
					 M1666.01,718.35h0.08c0.02,0.48,0.2,0.9,0.54,1.24c0.34,0.34,0.76,0.52,1.24,0.52h0.36v0.28h-2.22V718.35z M1672.99,700.39
					v0.81l-3.39-0.31c0.41,0,0.84-0.03,1.29-0.08c0.45-0.05,0.88-0.12,1.27-0.19C1672.54,700.54,1672.82,700.47,1672.99,700.39z
					 M1672.99,701.87v2.92l-0.28-0.03v-0.36c0-0.72-0.22-1.31-0.67-1.75c-0.44-0.45-1.03-0.68-1.75-0.7v-0.08H1672.99z"/>
			</g>
			<g>
				<path class="st1" d="M1679.74,702.95h-0.08c-0.02-0.48-0.2-0.89-0.54-1.24c-0.34-0.34-0.76-0.51-1.24-0.51h-0.36v-0.28h2.22
					V702.95z M1679.74,718.35v2.03h-2.22v-0.28h0.36c0.48,0,0.89-0.17,1.24-0.52c0.34-0.34,0.52-0.75,0.54-1.24H1679.74z
					 M1683.05,700.92v19.46h-3.39v-19.46H1683.05z M1690.67,700.92V702h-7.7v-1.08H1690.67z M1689.36,710.26v1.06h-6.39v-1.06
					H1689.36z M1690.42,719.3l0.47,1.09h-7.92v-1.09H1690.42z M1692.36,715.1l-1.39,5.28h-5.2l1-1.09c0.95,0,1.76-0.17,2.45-0.51
					c0.68-0.34,1.26-0.83,1.72-1.47c0.46-0.64,0.84-1.37,1.14-2.21H1692.36z M1689.36,707.93v2.39h-2.31v-0.05
					c0.57-0.02,1.06-0.22,1.45-0.61c0.39-0.39,0.58-0.87,0.58-1.44v-0.28H1689.36z M1689.36,711.26v2.39h-0.28v-0.31
					c0-0.57-0.19-1.06-0.58-1.45c-0.39-0.39-0.87-0.58-1.45-0.58v-0.05H1689.36z M1690.67,700.42v0.81l-3.39-0.3
					c0.41,0,0.84-0.03,1.29-0.08s0.88-0.12,1.26-0.19C1690.22,700.57,1690.5,700.5,1690.67,700.42z M1690.67,701.92v2.89h-0.28
					v-0.39c0-0.7-0.22-1.28-0.67-1.74c-0.44-0.45-1.04-0.69-1.78-0.71v-0.05H1690.67z"/>
			</g>
			<g>
				<path class="st1" d="M1699.4,702.95h-0.08c-0.02-0.48-0.2-0.89-0.54-1.24c-0.34-0.34-0.76-0.51-1.24-0.51h-0.36v-0.28h2.22
					V702.95z M1699.4,718.35v2.03h-2.22v-0.28h0.36c0.48,0,0.89-0.17,1.24-0.52c0.34-0.34,0.52-0.75,0.54-1.24H1699.4z
					 M1702.71,700.92v19.46h-3.39v-19.46H1702.71z M1702.62,702.95v-2.03h2.22v0.28c-0.02,0-0.14,0-0.36,0
					c-0.48,0-0.9,0.17-1.24,0.51c-0.34,0.34-0.53,0.76-0.54,1.24H1702.62z M1710.07,719.3l0.47,1.09h-7.92v-1.09H1710.07z
					 M1712.02,715.1l-1.39,5.28h-5.2l1-1.09c0.95,0,1.76-0.17,2.45-0.51c0.68-0.34,1.26-0.83,1.72-1.47
					c0.46-0.64,0.84-1.37,1.14-2.21H1712.02z"/>
			</g>
			<g>
				<path class="st1" d="M1718.55,702.95h-0.08c-0.02-0.48-0.2-0.89-0.54-1.24c-0.34-0.34-0.76-0.51-1.24-0.51h-0.36v-0.28h2.22
					V702.95z M1718.55,718.35v2.03h-2.22v-0.28h0.36c0.48,0,0.89-0.17,1.24-0.52c0.34-0.34,0.52-0.75,0.54-1.24H1718.55z
					 M1721.86,700.92v19.46h-3.39v-19.46H1721.86z M1721.78,702.95v-2.03h2.22v0.28c-0.02,0-0.14,0-0.36,0
					c-0.48,0-0.9,0.17-1.24,0.51c-0.34,0.34-0.53,0.76-0.54,1.24H1721.78z M1729.23,719.3l0.47,1.09h-7.92v-1.09H1729.23z
					 M1731.17,715.1l-1.39,5.28h-5.2l1-1.09c0.95,0,1.76-0.17,2.45-0.51c0.68-0.34,1.26-0.83,1.72-1.47
					c0.46-0.64,0.84-1.37,1.14-2.21H1731.17z"/>
			</g>
			<g>
				<path class="st1" d="M1737.71,702.95h-0.08c-0.02-0.48-0.2-0.89-0.54-1.24c-0.34-0.34-0.76-0.51-1.24-0.51h-0.36v-0.28h2.22
					V702.95z M1737.71,718.35v2.03h-2.22v-0.28h0.36c0.48,0,0.89-0.17,1.24-0.52c0.34-0.34,0.52-0.75,0.54-1.24H1737.71z
					 M1741.02,700.92v19.46h-3.39v-19.46H1741.02z M1748.63,700.92V702h-7.7v-1.08H1748.63z M1747.33,710.26v1.06h-6.39v-1.06
					H1747.33z M1748.39,719.3l0.47,1.09h-7.92v-1.09H1748.39z M1750.33,715.1l-1.39,5.28h-5.2l1-1.09c0.95,0,1.76-0.17,2.45-0.51
					c0.68-0.34,1.26-0.83,1.72-1.47c0.46-0.64,0.84-1.37,1.14-2.21H1750.33z M1747.33,707.93v2.39h-2.31v-0.05
					c0.57-0.02,1.06-0.22,1.45-0.61c0.39-0.39,0.58-0.87,0.58-1.44v-0.28H1747.33z M1747.33,711.26v2.39h-0.28v-0.31
					c0-0.57-0.19-1.06-0.58-1.45c-0.39-0.39-0.87-0.58-1.45-0.58v-0.05H1747.33z M1748.63,700.42v0.81l-3.39-0.3
					c0.41,0,0.84-0.03,1.29-0.08s0.88-0.12,1.26-0.19C1748.19,700.57,1748.47,700.5,1748.63,700.42z M1748.63,701.92v2.89h-0.28
					v-0.39c0-0.7-0.22-1.28-0.67-1.74c-0.44-0.45-1.04-0.69-1.78-0.71v-0.05H1748.63z"/>
			</g>
			<g>
				<path class="st1" d="M1757.42,702.95h-0.08c-0.02-0.48-0.2-0.89-0.54-1.24c-0.34-0.34-0.76-0.51-1.24-0.51
					c-0.02,0-0.08,0-0.18,0c-0.1,0-0.16,0-0.18,0v-0.28h2.22V702.95z M1757.42,718.35v2.03h-2.22v-0.28c0.02,0,0.08,0,0.18,0
					c0.1,0,0.16,0,0.18,0c0.48,0,0.9-0.17,1.24-0.52c0.34-0.34,0.52-0.75,0.54-1.24H1757.42z M1760.73,700.92v19.46h-3.39v-19.46
					H1760.73z M1764.07,700.92c0.83,0,1.63,0.1,2.38,0.3s1.41,0.52,1.99,0.95c0.57,0.43,1.02,0.97,1.35,1.63
					c0.32,0.66,0.49,1.44,0.49,2.35c0,0.82-0.18,1.62-0.53,2.42c-0.35,0.8-0.87,1.46-1.56,1.99c-0.69,0.53-1.53,0.83-2.53,0.9
					c0.5,0.17,0.98,0.48,1.43,0.93c0.45,0.46,0.83,0.91,1.13,1.35c0.02,0.02,0.13,0.19,0.35,0.51c0.21,0.32,0.48,0.72,0.79,1.18
					c0.31,0.46,0.64,0.93,0.99,1.39c0.34,0.46,0.64,0.85,0.9,1.17c0.41,0.48,0.78,0.88,1.12,1.18c0.34,0.31,0.71,0.54,1.1,0.7
					c0.39,0.16,0.84,0.24,1.34,0.24v0.28h-2.31c-0.96,0-1.82-0.1-2.57-0.31c-0.75-0.2-1.4-0.51-1.96-0.92
					c-0.56-0.41-1.04-0.92-1.45-1.53c-0.11-0.17-0.27-0.42-0.47-0.77c-0.2-0.34-0.43-0.73-0.67-1.15c-0.24-0.42-0.48-0.84-0.71-1.24
					c-0.23-0.4-0.43-0.75-0.58-1.07c-0.16-0.31-0.26-0.54-0.32-0.67c-0.3-0.54-0.62-0.97-0.97-1.31s-0.73-0.52-1.14-0.56v-0.28
					c0.04,0,0.16,0,0.36,0.01c0.2,0.01,0.44,0.01,0.7-0.01c0.5-0.02,1.01-0.11,1.51-0.28c0.51-0.17,0.97-0.48,1.38-0.93
					c0.41-0.45,0.7-1.09,0.89-1.91c0.04-0.17,0.07-0.38,0.11-0.64c0.04-0.26,0.05-0.53,0.03-0.81c-0.05-1.3-0.39-2.28-1-2.95
					c-0.61-0.67-1.39-1.02-2.33-1.06c-0.35-0.02-0.72-0.02-1.11-0.01c-0.39,0.01-0.73,0.01-1.02,0.01c-0.29,0-0.46,0-0.51,0
					c0-0.02-0.02-0.12-0.07-0.3c-0.04-0.18-0.11-0.45-0.21-0.81H1764.07z M1760.65,718.35h0.08c0,0.48,0.18,0.9,0.53,1.24
					c0.35,0.34,0.77,0.52,1.25,0.52c0.02,0,0.13,0,0.33,0v0.28h-2.2V718.35z"/>
			</g>
		</g>
		<g>
			<rect x="788.55" y="623.33" class="st1" width="195.67" height="1.11"/>
		</g>
		<g>
			<rect x="1579.13" y="623.33" class="st1" width="195.67" height="1.11"/>
		</g>
	</g>
	<g>
		<path class="st1" d="M421.55,581.52l-4.1-8.95l-63.25,75.48c0.6-3.5,0.92-7.09,0.92-10.76c0-35.58-29.22-64.65-65.02-64.65
			c-35.8,0-64.91,29.07-64.91,64.65c0,35.58,29.11,64.54,64.91,64.54c20.28,0,38.45-9.3,50.39-23.83l0.1,0.08L421.55,581.52z"/>
		<path class="st1" d="M437.79,562.14l35.43-42.26l0.09,69.78c0.74,41.63,8.11,55.83,51.46,87.79V457.52h-10.95L473.2,506v0.01
			l-39.06,46.62L437.79,562.14z"/>
		<path class="st1" d="M667.3,504.58c-31.32-50.17-90.5-79.7-155.92-71.33c-28.88,3.73-59.4,20.19-75.06,43.89
			c-18.55,28.11-23.04,64.99-10.21,97.06c6.81,16.8,20.26,31.68,36.94,41.97v-8.82c-13.28-8.71-24.11-20.76-30.01-35.69
			c-12.03-30.37-6.52-67.03,12.37-93.78c13.84-19.63,44.09-35.41,69.56-38.63c52.99-6.67,125.05,30.6,146.1,82.58
			c17.42,36.77,17.65,76.53,3.52,109.11c-17.7,40.78-56.51,67.14-98.89,67.14c-35.11,0-71.33-19.15-107.76-56.91
			c-0.26-0.27-0.6-0.63-0.99-1.04c-4.23-4.46-11.27-4.67-15.75-0.46l-60.03,56.5c-4.55,4.28-4.71,11.49-0.33,15.94
			c1.34,1.36,2.7,2.7,4.07,4.01c30.28,29.02,66.92,45.94,107.15,50.62c41.48,4.81,82.78-2.6,118.64-24.72
			C686.82,694.98,714.79,580.83,667.3,504.58z M460.29,737.38c-19.1-6.47-36.82-16.6-52.66-30.11l-3.37-2.88l44.27-41.66l2.72,2.61
			c10.76,10.31,21.69,19.27,32.49,26.61l2.91,1.98l-23.14,44.53L460.29,737.38z M526.81,747.34c0,0-30.49,0.84-50.55-5.42
			l20.7-41.65c11.51,6.56,23.15,11.53,34.62,14.77l3.79,1.07L526.81,747.34z M540.46,747.37l6.19-28.98
			c12.58,0.35,24.78-0.86,35.65-2.69l4.81,19.87C571.89,742.07,554.89,746.53,540.46,747.37z M619.6,715.3
			c-5.79,5.73-13.87,11.16-23.08,15.87l-4.21-17.39c1.82-0.39,3.58-0.8,5.28-1.2c4.9-1.18,9.66-2.89,14.22-5.04l5.62-2.65l8.24,5.34
			L619.6,715.3z"/>
		<path class="st1" d="M536.04,621.46v7.27c48.18-8.51,73.56-47.53,73.56-75.95c0-32.07-17.02-46.44-29.5-46.44
			c-10.1,0-19.92,7.13-19.92,16.29c0,25.17,19.92,28.06,19.92,51.59C580.1,592.66,565.24,614.72,536.04,621.46z"/>
	</g>
</g>
</svg>
